<svg width="20" height="21" viewBox="0 0 20 21" fill="none" xmlns="http://www.w3.org/2000/svg">
<path d="M19.3221 8.29665L18.0445 6.04885C17.9523 5.88681 17.7243 5.75427 17.5381 5.75427H2.12856C1.94212 5.75427 1.72856 5.89393 1.65382 6.06478L0.678055 8.29665" fill="#F7BB83"/>
<path d="M0.677959 8.63579C0.621653 8.63573 0.566248 8.62165 0.516743 8.59482C0.467239 8.56799 0.425193 8.52926 0.3944 8.48212C0.363606 8.43498 0.345034 8.38091 0.340359 8.3248C0.335684 8.26869 0.345053 8.21229 0.36762 8.16071L1.34355 5.92901C1.47152 5.63596 1.80898 5.41528 2.12881 5.41528H17.5381C17.8486 5.41528 18.1856 5.61122 18.3393 5.88122L19.6169 8.12918C19.6395 8.16791 19.6542 8.21073 19.6601 8.25516C19.6661 8.2996 19.6631 8.34477 19.6515 8.38806C19.6398 8.43135 19.6197 8.4719 19.5923 8.50736C19.5648 8.54282 19.5307 8.57249 19.4917 8.59465C19.4527 8.61681 19.4097 8.63102 19.3652 8.63645C19.3207 8.64189 19.2756 8.63844 19.2324 8.62632C19.1893 8.61419 19.149 8.59363 19.1138 8.56581C19.0786 8.53799 19.0493 8.50348 19.0276 8.46427L17.75 6.21647C17.718 6.1602 17.603 6.09325 17.5381 6.09325H2.12864C2.07711 6.09325 1.98508 6.15342 1.96457 6.20054L0.988637 8.43257C0.962193 8.49296 0.918728 8.54435 0.863555 8.58044C0.808381 8.61653 0.743888 8.63576 0.677959 8.63579Z" fill="#6E4123"/>
<path d="M16.6101 4.0593L16.0837 3.00659C16.0003 2.83981 15.7794 2.70337 15.5932 2.70337H13.3898C13.2033 2.70337 12.9972 2.84625 12.9318 3.02083L12.5423 4.0593" fill="#F7BB83"/>
<path d="M12.5425 4.39845C12.4877 4.39843 12.4337 4.38513 12.3852 4.35971C12.3367 4.33429 12.295 4.29749 12.2638 4.25246C12.2326 4.20744 12.2128 4.15552 12.206 4.10116C12.1993 4.0468 12.2058 3.99161 12.225 3.94031L12.6145 2.90184C12.7292 2.5954 13.0626 2.36438 13.3899 2.36438H15.5933C15.906 2.36438 16.2472 2.57523 16.3872 2.85506L16.9135 3.90777C16.9334 3.9476 16.9453 3.99096 16.9484 4.03538C16.9516 4.0798 16.9459 4.1244 16.9318 4.16664C16.9178 4.20889 16.8955 4.24794 16.8663 4.28158C16.8371 4.31522 16.8016 4.34278 16.7618 4.36268C16.722 4.38259 16.6786 4.39446 16.6342 4.39762C16.5898 4.40077 16.5451 4.39514 16.5029 4.38105C16.4607 4.36697 16.4216 4.3447 16.388 4.31552C16.3543 4.28634 16.3268 4.25082 16.3069 4.21099L15.7806 3.15828C15.7547 3.10624 15.6513 3.04235 15.5933 3.04235H13.3899C13.3452 3.04235 13.2652 3.09777 13.2494 3.13963L12.8599 4.17828C12.8356 4.24288 12.7923 4.29856 12.7355 4.33789C12.6788 4.37723 12.6115 4.39835 12.5425 4.39845Z" fill="#6E4123"/>
<path d="M6.94931 2.36442L6.42287 1.3117C6.33948 1.14492 6.11863 1.00848 5.93236 1.00848H4.06796C3.88152 1.00848 3.64813 1.13798 3.54931 1.29594L2.88152 2.36442" fill="#F7BB83"/>
<path d="M6.94953 2.70339C6.88653 2.70349 6.82474 2.68601 6.77111 2.65293C6.71749 2.61984 6.67415 2.57246 6.64598 2.5161L6.1197 1.46339C6.09377 1.41136 5.99038 1.34746 5.93242 1.34746H4.06801C3.99886 1.34746 3.87343 1.41695 3.83699 1.47577L3.1692 2.54424C3.11996 2.61702 3.0444 2.66786 2.95844 2.68606C2.87247 2.70426 2.7828 2.68841 2.70829 2.64183C2.63378 2.59525 2.58024 2.52159 2.55894 2.43633C2.53765 2.35108 2.55026 2.26089 2.59411 2.18475L3.26191 1.11627C3.42377 0.857461 3.76275 0.669495 4.06801 0.669495H5.93242C6.24513 0.669495 6.58631 0.880342 6.72631 1.16L7.25259 2.21271C7.27844 2.26439 7.29066 2.32182 7.28808 2.37954C7.2855 2.43727 7.26821 2.49337 7.23785 2.54254C7.20748 2.5917 7.16506 2.63228 7.1146 2.66044C7.06414 2.68859 7.00732 2.70338 6.94953 2.70339Z" fill="#6E4123"/>
<path d="M1.86426 18.9431C1.86426 19.4009 2.71545 19.8401 4.23059 20.1638C5.74572 20.4876 7.80069 20.6695 9.94341 20.6695C12.0861 20.6695 14.1411 20.4876 15.6562 20.1638C17.1714 19.8401 18.0226 19.4009 18.0226 18.9431C18.0226 18.4852 17.1714 18.046 15.6562 17.7223C14.1411 17.3985 12.0861 17.2166 9.94341 17.2166C7.80069 17.2166 5.74572 17.3985 4.23059 17.7223C2.71545 18.046 1.86426 18.4852 1.86426 18.9431Z" fill="#B8CBCD"/>
<path d="M13.5592 5.75427H15.5931V7.1102H13.5592V5.75427Z" fill="#F7BB83"/>
<path d="M15.5933 7.44918H13.5594C13.4695 7.44918 13.3832 7.41347 13.3197 7.3499C13.2561 7.28632 13.2204 7.2001 13.2204 7.1102V5.75427C13.2204 5.66436 13.2561 5.57814 13.3197 5.51457C13.3832 5.451 13.4695 5.41528 13.5594 5.41528H15.5933C15.6832 5.41528 15.7694 5.451 15.833 5.51457C15.8965 5.57814 15.9322 5.66436 15.9322 5.75427V7.1102C15.9322 7.2001 15.8965 7.28632 15.833 7.3499C15.7694 7.41347 15.6832 7.44918 15.5933 7.44918ZM13.8983 6.77122H15.2543V6.09325H13.8983V6.77122Z" fill="#6E4123"/>
<path d="M12.5423 4.05933H16.6101V5.75424H12.5423V4.05933Z" fill="white"/>
<path d="M16.6102 6.09322H12.5424C12.4525 6.09322 12.3663 6.0575 12.3027 5.99393C12.2392 5.93036 12.2034 5.84414 12.2034 5.75424V4.05932C12.2034 3.96942 12.2392 3.88319 12.3027 3.81962C12.3663 3.75605 12.4525 3.72034 12.5424 3.72034H16.6102C16.7001 3.72034 16.7864 3.75605 16.8499 3.81962C16.9135 3.88319 16.9492 3.96942 16.9492 4.05932V5.75424C16.9492 5.84414 16.9135 5.93036 16.8499 5.99393C16.7864 6.0575 16.7001 6.09322 16.6102 6.09322ZM12.8814 5.41525H16.2712V4.3983H12.8814V5.41525Z" fill="#6E4123"/>
<path d="M3.89812 4.05933H5.93202V7.11017H3.89812V4.05933Z" fill="#F7BB83"/>
<path d="M5.93213 7.44915H3.89823C3.80833 7.44915 3.72211 7.41344 3.65854 7.34986C3.59496 7.28629 3.55925 7.20007 3.55925 7.11017V4.05932C3.55925 3.96942 3.59496 3.88319 3.65854 3.81962C3.72211 3.75605 3.80833 3.72034 3.89823 3.72034H5.93213C6.02204 3.72034 6.10826 3.75605 6.17183 3.81962C6.2354 3.88319 6.27111 3.96942 6.27111 4.05932V7.11017C6.27111 7.20007 6.2354 7.28629 6.17183 7.34986C6.10826 7.41344 6.02204 7.44915 5.93213 7.44915ZM4.23722 6.77118H5.59315V4.3983H4.23722V6.77118Z" fill="#6E4123"/>
<path d="M2.88152 2.36438H6.94931V4.0593H2.88152V2.36438Z" fill="white"/>
<path d="M6.94909 4.39833H2.8813C2.79139 4.39833 2.70517 4.36262 2.6416 4.29905C2.57803 4.23548 2.54231 4.14925 2.54231 4.05935V2.36443C2.54231 2.27453 2.57803 2.18831 2.6416 2.12474C2.70517 2.06117 2.79139 2.02545 2.8813 2.02545H6.94909C7.039 2.02545 7.12522 2.06117 7.18879 2.12474C7.25236 2.18831 7.28808 2.27453 7.28808 2.36443V4.05935C7.28808 4.14925 7.25236 4.23548 7.18879 4.29905C7.12522 4.36262 7.039 4.39833 6.94909 4.39833ZM3.22028 3.72037H6.61011V2.70342H3.22028V3.72037Z" fill="#6E4123"/>
<path d="M0.678055 8.29663H19.3221V17.7882H0.678055V8.29663Z" fill="#F7BB83"/>
<path d="M19.3222 18.1271H0.678171C0.588267 18.1271 0.502045 18.0914 0.438473 18.0278C0.374902 17.9643 0.339188 17.8781 0.339188 17.7881V8.29662C0.339188 8.20672 0.374902 8.1205 0.438473 8.05693C0.502045 7.99336 0.588267 7.95764 0.678171 7.95764H19.3222C19.4121 7.95764 19.4984 7.99336 19.5619 8.05693C19.6255 8.1205 19.6612 8.20672 19.6612 8.29662V17.7881C19.6612 17.8781 19.6255 17.9643 19.5619 18.0278C19.4984 18.0914 19.4121 18.1271 19.3222 18.1271ZM1.01715 17.4492H18.9833V8.63561H1.01715V17.4492Z" fill="#6E4123"/>
<path d="M1.69499 13.0424C1.69499 14.0313 2.08785 14.9797 2.78714 15.679C3.48642 16.3783 4.43486 16.7712 5.42381 16.7712C6.41275 16.7712 7.36119 16.3783 8.06047 15.679C8.75976 14.9797 9.15262 14.0313 9.15262 13.0424C9.15262 12.0534 8.75976 11.105 8.06047 10.4057C7.36119 9.70639 6.41275 9.31354 5.42381 9.31354C4.43486 9.31354 3.48642 9.70639 2.78714 10.4057C2.08785 11.105 1.69499 12.0534 1.69499 13.0424Z" fill="white"/>
<path d="M5.42359 17.1102C3.1807 17.1102 1.35579 15.2853 1.35579 13.0424C1.35579 10.7995 3.1807 8.97461 5.42359 8.97461C7.66647 8.97461 9.49138 10.7995 9.49138 13.0424C9.49138 15.2853 7.66647 17.1102 5.42359 17.1102ZM5.42359 9.65258C3.55443 9.65258 2.03376 11.1733 2.03376 13.0424C2.03376 14.9116 3.55443 16.4322 5.42359 16.4322C7.29274 16.4322 8.81342 14.9116 8.81342 13.0424C8.81342 11.1733 7.29274 9.65258 5.42359 9.65258Z" fill="#6E4123"/>
<path d="M5.08464 10.3305C5.08464 10.4204 5.12035 10.5066 5.18393 10.5702C5.2475 10.6338 5.33372 10.6695 5.42362 10.6695C5.51353 10.6695 5.59975 10.6338 5.66332 10.5702C5.72689 10.5066 5.76261 10.4204 5.76261 10.3305C5.76261 10.2406 5.72689 10.1544 5.66332 10.0908C5.59975 10.0272 5.51353 9.99152 5.42362 9.99152C5.33372 9.99152 5.2475 10.0272 5.18393 10.0908C5.12035 10.1544 5.08464 10.2406 5.08464 10.3305Z" fill="#6E4123"/>
<path d="M5.08464 10.3305C5.08464 10.4204 5.12035 10.5066 5.18393 10.5702C5.2475 10.6338 5.33372 10.6695 5.42362 10.6695C5.51353 10.6695 5.59975 10.6338 5.66332 10.5702C5.72689 10.5066 5.76261 10.4204 5.76261 10.3305C5.76261 10.2406 5.72689 10.1544 5.66332 10.0908C5.59975 10.0272 5.51353 9.99152 5.42362 9.99152C5.33372 9.99152 5.2475 10.0272 5.18393 10.0908C5.12035 10.1544 5.08464 10.2406 5.08464 10.3305Z" fill="#6E4123"/>
<path d="M2.54231 13.2114C2.54231 13.3013 2.57803 13.3875 2.6416 13.4511C2.70517 13.5146 2.79139 13.5503 2.8813 13.5503C2.9712 13.5503 3.05742 13.5146 3.12099 13.4511C3.18456 13.3875 3.22028 13.3013 3.22028 13.2114C3.22028 13.1215 3.18456 13.0352 3.12099 12.9717C3.05742 12.9081 2.9712 12.8724 2.8813 12.8724C2.79139 12.8724 2.70517 12.9081 2.6416 12.9717C2.57803 13.0352 2.54231 13.1215 2.54231 13.2114Z" fill="#6E4123"/>
<path d="M5.08464 15.7543C5.08464 15.8442 5.12035 15.9304 5.18393 15.994C5.2475 16.0575 5.33372 16.0932 5.42362 16.0932C5.51353 16.0932 5.59975 16.0575 5.66332 15.994C5.72689 15.9304 5.76261 15.8442 5.76261 15.7543C5.76261 15.6644 5.72689 15.5781 5.66332 15.5146C5.59975 15.451 5.51353 15.4153 5.42362 15.4153C5.33372 15.4153 5.2475 15.451 5.18393 15.5146C5.12035 15.5781 5.08464 15.6644 5.08464 15.7543Z" fill="#6E4123"/>
<path d="M7.62695 13.2117C7.62695 13.3016 7.66267 13.3878 7.72624 13.4514C7.78981 13.5149 7.87603 13.5506 7.96594 13.5506C8.05584 13.5506 8.14206 13.5149 8.20563 13.4514C8.2692 13.3878 8.30492 13.3016 8.30492 13.2117C8.30492 13.1218 8.2692 13.0355 8.20563 12.972C8.14206 12.9084 8.05584 12.8727 7.96594 12.8727C7.87603 12.8727 7.78981 12.9084 7.72624 12.972C7.66267 13.0355 7.62695 13.1218 7.62695 13.2117Z" fill="#6E4123"/>
<path d="M6.61006 13.5509H5.42362C5.33372 13.5509 5.2475 13.5151 5.18393 13.4516C5.12035 13.388 5.08464 13.3018 5.08464 13.2119V11.517C5.08464 11.4271 5.12035 11.3408 5.18393 11.2773C5.2475 11.2137 5.33372 11.178 5.42362 11.178C5.51353 11.178 5.59975 11.2137 5.66332 11.2773C5.72689 11.3408 5.76261 11.4271 5.76261 11.517V12.8729H6.61006C6.69997 12.8729 6.78619 12.9086 6.84976 12.9722C6.91333 13.0358 6.94905 13.122 6.94905 13.2119C6.94905 13.3018 6.91333 13.388 6.84976 13.4516C6.78619 13.5151 6.69997 13.5509 6.61006 13.5509Z" fill="#6E4123"/>
<path d="M10.8473 13.0424C10.8473 13.532 10.9438 14.0169 11.1312 14.4693C11.3186 14.9217 11.5932 15.3328 11.9395 15.679C12.2857 16.0253 12.6968 16.2999 13.1492 16.4873C13.6016 16.6747 14.0865 16.7712 14.5761 16.7712C15.0658 16.7712 15.5507 16.6747 16.0031 16.4873C16.4555 16.2999 16.8666 16.0253 17.2128 15.679C17.5591 15.3328 17.8337 14.9217 18.0211 14.4693C18.2085 14.0169 18.305 13.532 18.305 13.0424C18.305 12.5527 18.2085 12.0678 18.0211 11.6154C17.8337 11.163 17.5591 10.7519 17.2128 10.4057C16.8666 10.0594 16.4555 9.78477 16.0031 9.59738C15.5507 9.40999 15.0658 9.31354 14.5761 9.31354C14.0865 9.31354 13.6016 9.40999 13.1492 9.59738C12.6968 9.78477 12.2857 10.0594 11.9395 10.4057C11.5932 10.7519 11.3186 11.163 11.1312 11.6154C10.9438 12.0678 10.8473 12.5527 10.8473 13.0424Z" fill="white"/>
<path d="M14.5763 17.1102C12.3334 17.1102 10.5085 15.2853 10.5085 13.0424C10.5085 10.7995 12.3334 8.97461 14.5763 8.97461C16.8191 8.97461 18.6441 10.7995 18.6441 13.0424C18.6441 15.2853 16.8191 17.1102 14.5763 17.1102ZM14.5763 9.65258C12.7071 9.65258 11.1864 11.1733 11.1864 13.0424C11.1864 14.9116 12.7071 16.4322 14.5763 16.4322C16.4454 16.4322 17.9661 14.9116 17.9661 13.0424C17.9661 11.1733 16.4454 9.65258 14.5763 9.65258Z" fill="#6E4123"/>
<path d="M13.8417 14.5583C13.7766 14.5583 13.7128 14.5395 13.6581 14.5042C13.6034 14.4689 13.56 14.4185 13.5331 14.3592C13.5063 14.2999 13.497 14.2341 13.5066 14.1697C13.5161 14.1052 13.544 14.0449 13.5869 13.9959L14.2373 13.2539V11.517C14.2373 11.4271 14.273 11.3408 14.3366 11.2773C14.4001 11.2137 14.4864 11.178 14.5763 11.178C14.6662 11.178 14.7524 11.2137 14.816 11.2773C14.8795 11.3408 14.9153 11.4271 14.9153 11.517V13.3814C14.9153 13.4636 14.8854 13.5429 14.8312 13.6048L14.0968 14.4427C14.065 14.4791 14.0258 14.5082 13.9818 14.5282C13.9378 14.5481 13.89 14.5584 13.8417 14.5583Z" fill="#6E4123"/>
<path d="M2.20345 17.7881H5.0848V19.822H2.20345V17.7881Z" fill="#F7BB83"/>
<path d="M5.0846 20.161H2.20324C2.11334 20.161 2.02712 20.1253 1.96354 20.0617C1.89997 19.9982 1.86426 19.9119 1.86426 19.822V17.7881C1.86426 17.6982 1.89997 17.612 1.96354 17.5484C2.02712 17.4849 2.11334 17.4492 2.20324 17.4492H5.0846C5.1745 17.4492 5.26072 17.4849 5.32429 17.5484C5.38787 17.612 5.42358 17.6982 5.42358 17.7881V19.822C5.42358 19.9119 5.38787 19.9982 5.32429 20.0617C5.26072 20.1253 5.1745 20.161 5.0846 20.161ZM2.54222 19.4831H4.74561V18.1271H2.54222V19.4831Z" fill="#6E4123"/>
<path d="M14.9154 17.7881H17.7967V19.822H14.9154V17.7881Z" fill="#F7BB83"/>
<path d="M17.7965 20.161H14.9152C14.8253 20.161 14.739 20.1253 14.6755 20.0617C14.6119 19.9982 14.5762 19.9119 14.5762 19.822V17.7881C14.5762 17.6982 14.6119 17.612 14.6755 17.5484C14.739 17.4849 14.8253 17.4492 14.9152 17.4492H17.7965C17.8864 17.4492 17.9726 17.4849 18.0362 17.5484C18.0998 17.612 18.1355 17.6982 18.1355 17.7881V19.822C18.1355 19.9119 18.0998 19.9982 18.0362 20.0617C17.9726 20.1253 17.8864 20.161 17.7965 20.161ZM15.2541 19.4831H17.4575V18.1271H15.2541V19.4831Z" fill="#6E4123"/>
<path d="M6.27119 1.00847L6.94915 2.3644V4.05932H5.9322V5.75423H13.5593H12.5424V4.05932L13.0508 2.70339H15.9322L16.6102 4.05932V5.75423H15.5932H17.8769L19.322 8.29661V17.7881H17.7966V19.822H14.9153V17.7881H5.08475V19.822H2.20339V17.7881H0.677966V8.29661L1.78966 5.75423H3.89831V4.05932H2.88136V2.3644L3.72881 1.00847H6.27119ZM6.27119 0.330505H3.72881C3.61383 0.330521 3.50074 0.359774 3.40017 0.415514C3.2996 0.471254 3.21485 0.551652 3.1539 0.649149L2.30644 2.00508C2.23912 2.11284 2.20342 2.23734 2.20339 2.3644V4.05932C2.20339 4.23913 2.27482 4.41157 2.40196 4.53871C2.5291 4.66586 2.70155 4.73729 2.88136 4.73729H3.22034V5.07627H1.78966C1.65781 5.07627 1.52883 5.11473 1.4185 5.18691C1.30817 5.2591 1.22128 5.3619 1.16847 5.48271L0.0567797 8.02508C0.0193458 8.11071 1.4879e-05 8.20315 0 8.29661V17.7881C0 17.9679 0.0714283 18.1404 0.198572 18.2675C0.325715 18.3947 0.498158 18.4661 0.677966 18.4661H1.52542V19.822C1.52542 20.0018 1.59685 20.1743 1.724 20.3014C1.85114 20.4286 2.02358 20.5 2.20339 20.5H5.08475C5.26455 20.5 5.437 20.4286 5.56414 20.3014C5.69128 20.1743 5.76271 20.0018 5.76271 19.822V18.4661H14.2373V19.822C14.2373 20.0018 14.3087 20.1743 14.4359 20.3014C14.563 20.4286 14.7354 20.5 14.9153 20.5H17.7966C17.9764 20.5 18.1489 20.4286 18.276 20.3014C18.4031 20.1743 18.4746 20.0018 18.4746 19.822V18.4661H19.322C19.5018 18.4661 19.6743 18.3947 19.8014 18.2675C19.9286 18.1404 20 17.9679 20 17.7881V8.29661C20 8.17915 19.9695 8.06373 19.9114 7.96152L18.4663 5.41915C18.4071 5.31501 18.3213 5.22842 18.2178 5.16819C18.1142 5.10796 17.9966 5.07625 17.8768 5.07627H17.288V4.05932C17.288 3.95406 17.2634 3.85034 17.2164 3.7561L16.5385 2.40017C16.4821 2.28759 16.3955 2.19291 16.2884 2.12673C16.1813 2.06054 16.0579 2.02547 15.932 2.02542H13.0507C12.9127 2.02541 12.7779 2.06754 12.6645 2.14617C12.5511 2.2248 12.4644 2.33618 12.4159 2.46542L11.9075 3.82135C11.8789 3.89743 11.8642 3.97804 11.8642 4.05932V5.07627H6.61V4.73729H6.94898C7.12879 4.73729 7.30123 4.66586 7.42838 4.53871C7.55552 4.41157 7.62695 4.23913 7.62695 4.05932V2.3644C7.62695 2.25915 7.60237 2.15542 7.55542 2.06118L6.87746 0.705251C6.82114 0.592672 6.7346 0.49799 6.62753 0.431805C6.52045 0.36562 6.39707 0.330545 6.27119 0.330505Z" fill="#6E4123"/>
<path d="M14.2376 10.3305C14.2376 10.4204 14.2733 10.5066 14.3369 10.5702C14.4005 10.6338 14.4867 10.6695 14.5766 10.6695C14.6665 10.6695 14.7527 10.6338 14.8163 10.5702C14.8799 10.5066 14.9156 10.4204 14.9156 10.3305C14.9156 10.2406 14.8799 10.1544 14.8163 10.0908C14.7527 10.0272 14.6665 9.99152 14.5766 9.99152C14.4867 9.99152 14.4005 10.0272 14.3369 10.0908C14.2733 10.1544 14.2376 10.2406 14.2376 10.3305Z" fill="#6E4123"/>
<path d="M11.695 13.2114C11.695 13.3013 11.7307 13.3875 11.7943 13.4511C11.8578 13.5146 11.9441 13.5503 12.034 13.5503C12.1239 13.5503 12.2101 13.5146 12.2737 13.4511C12.3372 13.3875 12.373 13.3013 12.373 13.2114C12.373 13.1215 12.3372 13.0352 12.2737 12.9717C12.2101 12.9081 12.1239 12.8724 12.034 12.8724C11.9441 12.8724 11.8578 12.9081 11.7943 12.9717C11.7307 13.0352 11.695 13.1215 11.695 13.2114Z" fill="#6E4123"/>
<path d="M14.2376 15.7543C14.2376 15.8442 14.2733 15.9304 14.3369 15.994C14.4005 16.0575 14.4867 16.0932 14.5766 16.0932C14.6665 16.0932 14.7527 16.0575 14.8163 15.994C14.8799 15.9304 14.9156 15.8442 14.9156 15.7543C14.9156 15.6644 14.8799 15.5781 14.8163 15.5146C14.7527 15.451 14.6665 15.4153 14.5766 15.4153C14.4867 15.4153 14.4005 15.451 14.3369 15.5146C14.2733 15.5781 14.2376 15.6644 14.2376 15.7543Z" fill="#6E4123"/>
<path d="M16.78 13.2117C16.78 13.3016 16.8157 13.3878 16.8792 13.4514C16.9428 13.5149 17.029 13.5506 17.1189 13.5506C17.2088 13.5506 17.2951 13.5149 17.3586 13.4514C17.4222 13.3878 17.4579 13.3016 17.4579 13.2117C17.4579 13.1218 17.4222 13.0355 17.3586 12.972C17.2951 12.9084 17.2088 12.8727 17.1189 12.8727C17.029 12.8727 16.9428 12.9084 16.8792 12.972C16.8157 13.0355 16.78 13.1218 16.78 13.2117Z" fill="#6E4123"/>
</svg>
