<svg width="16" height="21" viewBox="0 0 16 21" fill="none" xmlns="http://www.w3.org/2000/svg">
<g filter="url(#filter0_i_0_1)">
<path d="M7.73484 10.464L13.9499 16.2968L10.9434 19L2 10.6066L11.1455 2L14 4.65542L7.73484 10.464Z" fill="#371D31"/>
</g>
<path d="M11.4863 1.63379L14.3408 4.28906L14.7344 4.65625L14.3398 5.02246L8.46777 10.4658L14.292 15.9326L14.6885 16.3047L14.2842 16.6689L11.2773 19.3721L10.9365 19.6787L10.6016 19.3643L1.6582 10.9707L1.26953 10.6074L1.65723 10.2422L10.8027 1.63574L11.1436 1.31543L11.4863 1.63379Z" stroke="url(#paint0_linear_0_1)"/>
<path d="M7.73484 8.46396L13.9499 14.2968L10.9434 17L2 8.6066L11.1455 0L14 2.65542L7.73484 8.46396Z" fill="url(#paint1_linear_0_1)"/>
<defs>
<filter id="filter0_i_0_1" x="0.539062" y="0.628906" width="14.9297" height="19.7305" filterUnits="userSpaceOnUse" color-interpolation-filters="sRGB">
<feFlood flood-opacity="0" result="BackgroundImageFix"/>
<feBlend mode="normal" in="SourceGraphic" in2="BackgroundImageFix" result="shape"/>
<feColorMatrix in="SourceAlpha" type="matrix" values="0 0 0 0 0 0 0 0 0 0 0 0 0 0 0 0 0 0 127 0" result="hardAlpha"/>
<feOffset dy="3"/>
<feComposite in2="hardAlpha" operator="arithmetic" k2="-1" k3="1"/>
<feColorMatrix type="matrix" values="0 0 0 0 0.461538 0 0 0 0 0.168561 0 0 0 0 0.0007396 0 0 0 1 0"/>
<feBlend mode="normal" in2="shape" result="effect1_innerShadow_0_1"/>
</filter>
<linearGradient id="paint0_linear_0_1" x1="8" y1="2" x2="8" y2="19" gradientUnits="userSpaceOnUse">
<stop stop-color="#A23B00"/>
<stop offset="1" stop-color="#8F5032"/>
</linearGradient>
<linearGradient id="paint1_linear_0_1" x1="8" y1="0" x2="8" y2="17" gradientUnits="userSpaceOnUse">
<stop stop-color="#FFD093"/>
<stop offset="1" stop-color="#FFDBAB"/>
</linearGradient>
</defs>
</svg>