<svg width="21" height="21" viewBox="0 0 21 21" fill="none" xmlns="http://www.w3.org/2000/svg">
<path d="M10.5 0C4.6991 0 0 4.6991 0 10.5C0 16.3009 4.6991 21 10.5 21C16.3009 21 21 16.3009 21 10.5C21 4.6991 16.3009 0 10.5 0ZM14.4834 7.37354C14.4646 7.5148 14.4363 7.66547 14.4175 7.83498L12.0632 8.35291C12.0821 8.22108 12.1009 8.13632 12.1103 8.09866C12.1197 8.06099 12.1291 8.02332 12.1291 7.99507C12.1291 7.65605 12.0632 7.42063 11.9408 7.27937C11.8184 7.13812 11.6677 7.0722 11.4888 7.0722C11.3758 7.0722 11.2722 7.10045 11.1498 7.14753C11.0368 7.19462 10.9238 7.26054 10.8202 7.33588C10.7166 7.41121 10.6318 7.5148 10.5753 7.6278C10.5188 7.75023 10.4812 7.87265 10.4812 8.00449C10.4812 8.18341 10.5565 8.3435 10.6978 8.50359C10.8484 8.66368 11.0274 8.82377 11.2439 8.98386C11.4605 9.14395 11.696 9.32287 11.9596 9.52063C12.2139 9.71839 12.4493 9.9444 12.6659 10.2081C12.8825 10.4717 13.0614 10.7731 13.2121 11.1215C13.3628 11.47 13.4287 11.8749 13.4287 12.3457C13.4287 12.8166 13.3534 13.2121 13.2121 13.5982C13.0709 13.9843 12.8731 14.3327 12.6188 14.6529C12.3646 14.9731 12.0632 15.2368 11.7242 15.4722C11.3852 15.6982 11.0179 15.8771 10.613 16.009C10.5659 16.3103 10.5377 16.6211 10.5094 16.9224C10.4812 17.2238 10.4717 17.4404 10.4717 17.5628L8.42825 17.7417C8.4565 17.5816 8.49417 17.4027 8.52242 17.2144C8.55067 17.0637 8.59776 16.8942 8.63543 16.7247C8.68251 16.5457 8.7296 16.3857 8.7861 16.235C8.39058 16.2067 7.99507 16.0749 7.59955 15.8395C7.20404 15.604 6.81794 15.265 6.45067 14.7942L7.6278 12.4117C7.70314 12.5623 7.80673 12.7224 7.92915 12.8731C8.05157 13.0332 8.19283 13.1744 8.33408 13.3157C8.48475 13.4475 8.63543 13.5605 8.80493 13.6547C8.96502 13.7395 9.12511 13.7865 9.26637 13.7865C9.54888 13.7865 9.80314 13.6924 10.0386 13.5135C10.2646 13.3345 10.3776 13.0238 10.3776 12.5717C10.3776 12.374 10.3022 12.1762 10.161 11.9879C10.0197 11.7901 9.85022 11.5924 9.64305 11.3946C9.44529 11.1969 9.21928 10.9803 8.97444 10.7543C8.7296 10.5283 8.50359 10.3022 8.30583 10.048C8.10807 9.80314 7.93857 9.53946 7.79731 9.27579C7.66547 9.00269 7.59014 8.71076 7.59014 8.40942C7.59014 8.07982 7.66547 7.75964 7.80673 7.4583C7.9574 7.14753 8.15516 6.86502 8.40942 6.60135C8.66368 6.33767 8.95561 6.10224 9.29462 5.89507C9.63363 5.68789 9.96323 5.50897 10.3117 5.3583C10.3964 4.95336 10.4812 4.62377 10.5471 4.36009C10.6224 4.09641 10.6978 3.82332 10.7825 3.54081L13.0238 3.27713L12.374 4.92511C12.6659 4.93453 12.939 4.98161 13.2027 5.06637C13.457 5.15112 13.683 5.26413 13.8713 5.42422C14.0596 5.58431 14.2103 5.79148 14.3233 6.03632C14.4363 6.28117 14.4834 6.58251 14.4834 6.93094C14.4834 7.08161 14.474 7.23229 14.4552 7.37354H14.4834Z" fill="#785766"/>
</svg>
