<svg width="20" height="20" viewBox="0 0 20 20" fill="none" xmlns="http://www.w3.org/2000/svg">
<rect width="20" height="20" rx="10" fill="#E99F8C"/>
<path d="M10.0986 12.6621C10.445 12.6621 10.7389 12.7874 10.9805 13.0381C11.222 13.2842 11.3428 13.5804 11.3428 13.9268C11.3428 14.2686 11.222 14.5625 10.9805 14.8086C10.7389 15.0501 10.445 15.1709 10.0986 15.1709C9.75228 15.1709 9.45605 15.0501 9.20996 14.8086C8.96387 14.5625 8.84082 14.2686 8.84082 13.9268C8.84082 13.5804 8.96159 13.2842 9.20312 13.0381C9.44466 12.7874 9.74316 12.6621 10.0986 12.6621ZM11.0488 10.9805C11.0397 11.1126 10.9873 11.2266 10.8916 11.3223C10.8005 11.4134 10.6911 11.459 10.5635 11.459H9.64062C9.50846 11.459 9.39225 11.4134 9.29199 11.3223C9.19629 11.2266 9.14388 11.1126 9.13477 10.9805L8.86816 5.7168C8.85905 5.57552 8.90234 5.45475 8.99805 5.35449C9.09831 5.24967 9.21908 5.19727 9.36035 5.19727H10.8301C10.9714 5.19727 11.0898 5.24967 11.1855 5.35449C11.2812 5.45475 11.3245 5.57552 11.3154 5.7168L11.0488 10.9805Z" fill="#853834"/>
</svg>
