<svg width="18" height="24" viewBox="0 0 18 24" fill="none" xmlns="http://www.w3.org/2000/svg">
<mask id="path-1-outside-1_48_6823" maskUnits="userSpaceOnUse" x="0" y="0" width="18" height="24" fill="black">
<rect fill="white" width="18" height="24"/>
<path fill-rule="evenodd" clip-rule="evenodd" d="M8.95403 1.65548C9.3481 1.65548 9.74263 1.65662 10.1367 1.65548C10.3115 1.6395 10.4863 1.68672 10.6288 1.78845C10.7713 1.89017 10.872 2.03954 10.9122 2.20903C11.0465 2.59996 11.1373 3.00432 11.1829 3.41487C11.1978 3.57492 11.2032 3.73497 11.2163 3.89662C11.2172 3.95427 11.2382 4.00984 11.2758 4.05383C11.3134 4.09783 11.3652 4.12753 11.4224 4.13784C11.5096 4.16921 11.5997 4.19218 11.6913 4.20643C12.0372 4.21947 12.3844 4.22746 12.7317 4.22152C12.755 4.22011 12.7779 4.21402 12.7988 4.20362C12.8197 4.19321 12.8382 4.17871 12.8533 4.161C12.8684 4.14328 12.8797 4.1227 12.8865 4.10053C12.8934 4.07835 12.8956 4.05504 12.8931 4.03198C12.8663 3.82863 12.8262 3.62723 12.773 3.42905C12.7084 3.18601 12.6266 2.94708 12.553 2.70609C12.422 2.27625 12.6199 1.94769 12.8963 1.65068C12.9588 1.582 13.0436 1.53726 13.1359 1.52425C13.8867 1.48812 14.5815 1.21192 15.2963 1.02833C15.4178 0.990122 15.5483 0.990576 15.6695 1.02961C15.7908 1.06864 15.8966 1.1443 15.9723 1.246C16.0766 1.36867 16.1606 1.50706 16.2209 1.65594C16.3222 1.88754 16.4035 2.12726 16.464 2.37251C16.6316 3.11079 16.7612 3.85867 16.9463 4.59169C16.9982 4.7561 17.0127 4.92986 16.9888 5.10048C16.9649 5.27111 16.9031 5.43436 16.808 5.5785C16.6153 5.89189 16.3912 6.18527 16.1393 6.4542C15.7669 6.79987 15.3743 7.12335 14.9633 7.42295C14.8179 7.53815 14.649 7.62068 14.4682 7.66484C14.1148 7.77412 13.7765 7.92683 13.4613 8.11939C13.3499 8.17358 13.2572 8.26571 13.2851 8.3878C13.4216 8.98227 13.1073 9.45739 12.8687 9.94531C12.7822 10.1027 12.7555 10.2856 12.7933 10.4609C13.0605 11.8581 13.3492 13.2517 13.5323 14.6631C13.6003 15.186 13.6391 15.7128 13.6882 16.238C13.6891 16.283 13.704 16.3267 13.7307 16.3632C13.7575 16.3996 13.7949 16.4271 13.8378 16.4419C14.0945 16.548 14.3486 16.6598 14.6015 16.7734C14.8109 16.8737 14.9949 17.0194 15.1397 17.1998C15.2271 17.275 15.293 17.3716 15.3311 17.4799C15.3692 17.5882 15.378 17.7044 15.3567 17.8172C15.3419 17.8966 15.3484 17.9785 15.3754 18.0548C15.4025 18.131 15.4492 18.1988 15.5109 18.2516C16.0196 18.8518 16.3696 19.5681 16.5294 20.3359C16.5929 20.6041 16.5944 20.8831 16.534 21.152C16.4736 21.4209 16.3528 21.6729 16.1806 21.889C15.9338 22.228 15.5854 22.4811 15.1851 22.6122C14.886 22.7372 14.5718 22.823 14.2503 22.8674C13.563 22.9163 12.8857 23.0889 12.179 22.9419C11.6962 22.8785 11.209 22.8542 10.7222 22.8692C10.2149 22.848 9.70528 22.8194 9.19592 22.8057C8.94135 22.7961 8.68642 22.8037 8.4329 22.8285C7.55673 22.931 6.67199 22.9401 5.79386 22.8557C4.84316 22.7558 3.89637 22.7668 2.94752 22.7563C2.55341 22.7552 2.16087 22.7069 1.77845 22.6125C1.52542 22.5604 1.3035 22.4111 1.16127 22.1972C1.01904 21.9833 0.968098 21.7222 1.0196 21.4711C1.02199 21.4247 1.02926 21.3787 1.04127 21.3339C1.35187 20.4463 1.58522 19.5233 2.17552 18.7587C2.47067 18.3769 2.68419 17.9356 3.04021 17.5972C3.09755 17.5261 3.12645 17.4366 3.12138 17.3457C3.12201 17.1147 3.18482 16.888 3.30331 16.6891C3.36265 16.5506 3.45624 16.4292 3.57542 16.3362C3.6946 16.2431 3.83551 16.1813 3.98515 16.1566C4.19268 16.1355 4.25862 16.0148 4.30797 15.8561C4.5042 15.2198 4.7025 14.5837 4.89204 13.9454C5.20587 12.8884 5.47888 11.8211 5.70278 10.7419C5.73045 10.6072 5.74889 10.4703 5.77518 10.3351C5.82568 10.0816 5.77703 9.88471 5.4941 9.79897C5.41509 9.77869 5.34467 9.73394 5.29308 9.67123C5.24149 9.60852 5.21142 9.53113 5.20725 9.4503C5.18287 9.34005 5.13731 9.23549 5.07305 9.14233C4.95776 8.94387 4.83878 8.74655 4.70919 8.55701C4.66581 8.47977 4.59569 8.42072 4.51181 8.39078C4.03514 8.2892 3.58379 8.09408 3.18433 7.8169C2.90763 7.64931 2.61756 7.50045 2.34892 7.32142C2.13796 7.18139 1.9403 7.0226 1.75839 6.84701C1.60745 6.70271 1.48848 6.5288 1.40908 6.33637C1.32967 6.14395 1.29158 5.93724 1.29722 5.72941C1.28216 5.06291 1.31583 4.39619 1.39799 3.73451C1.43161 3.41427 1.44386 3.09218 1.43465 2.77034C1.43765 2.61029 1.42105 2.44865 1.42151 2.28791C1.42474 1.73529 1.61612 1.52882 2.15684 1.50802C2.57397 1.49201 2.99133 1.48767 3.40892 1.48241C3.71076 1.47852 4.01236 1.48972 4.31327 1.48012C4.45191 1.46754 4.59113 1.49684 4.71266 1.56417C4.83419 1.6315 4.93233 1.73372 4.99419 1.85738C5.15029 2.08685 5.22767 2.36008 5.21486 2.63658C5.17128 3.12702 5.32301 3.58979 5.40994 4.06125C5.45606 4.31275 5.54091 4.3523 5.78717 4.33309C6.06387 4.3116 6.34058 4.30406 6.61867 4.29537C6.96454 4.28417 7.01065 4.24301 6.99152 3.87924C6.98114 3.67347 6.94125 3.47021 6.9145 3.26558C6.8614 2.97116 6.85471 2.67034 6.89467 2.37388C6.90569 2.18734 6.98826 2.01204 7.12546 1.88394C7.26267 1.75585 7.44409 1.68466 7.63254 1.68498C8.07065 1.65297 8.51246 1.64794 8.95287 1.63102L8.95403 1.65548ZM5.20079 20.407C5.41455 20.3862 5.45306 20.1573 5.61055 20.0665C5.67079 20.0331 5.74085 20.0212 5.80887 20.0331C5.87689 20.0449 5.9387 20.0797 5.98386 20.1315C6.03589 20.1932 6.07257 20.2662 6.09095 20.3445C6.10934 20.4229 6.10891 20.5044 6.0897 20.5826C6.00969 20.846 5.93221 21.1105 5.84689 21.3723C5.81692 21.4658 5.86995 21.4974 5.93797 21.5147C5.95944 21.5218 5.98216 21.5245 6.00469 21.5225C6.02722 21.5204 6.0491 21.5138 6.06895 21.5031C6.13231 21.4386 6.18964 21.3686 6.24027 21.2939C6.36409 21.1281 6.47754 20.9548 6.61082 20.7966C6.64516 20.749 6.69646 20.7161 6.75433 20.7045C6.8122 20.693 6.87234 20.7036 6.92257 20.7344C7.00936 20.8037 7.07689 20.8938 7.1188 20.9962C7.14324 21.0485 7.11073 21.129 7.09713 21.1956C7.07665 21.2606 7.0607 21.327 7.04939 21.3943C7.0518 21.4152 7.05904 21.4353 7.07056 21.4531C7.08208 21.4708 7.09756 21.4856 7.1158 21.4965C7.15999 21.5198 7.20872 21.5336 7.25871 21.5367C7.30869 21.5398 7.35877 21.5323 7.40557 21.5146C7.45238 21.4969 7.49481 21.4695 7.53003 21.4342C7.56524 21.3989 7.59241 21.3565 7.60971 21.3099C7.66373 21.1589 7.72703 21.0114 7.79926 20.8682C7.8326 20.8141 7.87779 20.7682 7.93148 20.7339C7.98516 20.6995 8.04596 20.6776 8.10935 20.6697C8.17275 20.6619 8.23713 20.6683 8.29769 20.6884C8.35825 20.7086 8.41345 20.7421 8.45919 20.7863C8.54151 20.8512 8.60163 20.9396 8.63134 21.0397C8.66106 21.1397 8.65892 21.2463 8.62522 21.3451C8.58625 21.4612 8.65727 21.5099 8.76357 21.5125C8.90192 21.5159 9.04027 21.5166 9.17862 21.5125C10.2197 21.4766 11.2615 21.5056 12.3026 21.4226C12.9713 21.3693 13.6462 21.4071 14.3177 21.3997C14.6174 21.3963 14.9197 21.3881 15.2202 21.3712C15.4697 21.3572 15.5174 21.2877 15.4441 21.0778C15.406 20.9692 15.3657 20.862 15.3246 20.7548C15.0373 20.0071 14.7062 19.2789 14.3626 18.5555C14.348 18.5123 14.3197 18.4751 14.282 18.4492C14.2443 18.4234 14.1991 18.4104 14.1533 18.4121C13.8074 18.4263 13.4597 18.4432 13.1129 18.4667C12.8592 18.4834 12.6056 18.5104 12.3535 18.5353C12.0077 18.5692 11.6646 18.6092 11.3196 18.6389C11.1579 18.6353 10.9962 18.6417 10.8354 18.6581C10.3096 18.7437 9.77707 18.782 9.24434 18.7724C9.03681 18.7797 8.82928 18.7953 8.62175 18.8102C8.34505 18.8296 8.06835 18.8744 7.79303 18.8682C7.09989 18.8522 6.40722 18.8143 5.71408 18.7843C5.59919 18.7723 5.48374 18.7661 5.3682 18.7658C5.28516 18.7725 5.20416 18.7949 5.12955 18.8317C5.13844 19.0142 5.17868 19.1939 5.24853 19.363C5.31329 19.485 5.34579 19.6212 5.34301 19.759C5.34023 19.8968 5.30225 20.0316 5.23262 20.1509C5.21071 20.2384 5.20431 20.329 5.21371 20.4186C5.17912 20.4415 5.12954 20.4568 5.11433 20.4888C5.09911 20.5208 5.11871 20.568 5.12286 20.6084C5.14592 20.5856 5.18097 20.5664 5.1895 20.5398C5.19863 20.4962 5.20241 20.4515 5.20079 20.407ZM2.87788 3.72514H2.82923C2.82923 3.83946 2.82323 3.95561 2.82923 4.07016C2.84306 4.29766 2.86336 4.5247 2.88042 4.75174C3.15712 4.75929 3.21384 4.48012 3.3967 4.36602C3.41584 4.35368 3.43405 4.33058 3.45365 4.32921C3.51635 4.31424 3.58191 4.31565 3.64389 4.33333C3.67324 4.35005 3.69839 4.37313 3.71747 4.40084C3.73656 4.42856 3.74908 4.46019 3.75411 4.49338C3.7432 4.60642 3.70889 4.716 3.65334 4.8153C3.5136 5.05377 3.35196 5.27898 3.21108 5.51654C3.17397 5.5984 3.14993 5.68549 3.13983 5.77468C3.1366 5.79137 3.1562 5.81835 3.17234 5.83206C3.17994 5.83687 3.18866 5.83967 3.19766 5.84019C3.20666 5.84071 3.21564 5.83894 3.22376 5.83504C3.34644 5.69848 3.47662 5.56872 3.61368 5.44635C3.65069 5.42321 3.69216 5.40802 3.73545 5.40172C3.77873 5.39542 3.82286 5.39816 3.86502 5.40977C3.92113 5.42752 3.96927 5.46409 4.00116 5.51319C4.03305 5.56229 4.04671 5.62088 4.0398 5.67888C4.02371 5.76891 3.99988 5.85741 3.96855 5.94341C3.92243 6.13273 3.95057 6.27905 4.0405 6.30672C4.17608 6.3481 4.24802 6.25802 4.32965 6.17205C4.43772 6.05305 4.5544 5.94202 4.67875 5.83984C4.71286 5.81813 4.75141 5.8042 4.79161 5.79905C4.83181 5.7939 4.87267 5.79767 4.91123 5.81007C4.94978 5.82247 4.98509 5.8432 5.01458 5.87076C5.04408 5.89833 5.06705 5.93205 5.08181 5.96948C5.11591 6.05268 5.12965 6.1427 5.12193 6.23219C5.09887 6.39018 5.04584 6.54451 5.00895 6.70113C4.99569 6.7678 5.00849 6.83696 5.04476 6.89462C5.08103 6.95228 5.13804 6.9941 5.20426 7.01162C5.34169 7.0135 5.47889 7.02335 5.61516 7.04112C6.2096 7.21077 6.8142 7.12297 7.4121 7.11108C7.89749 7.10102 8.38172 7.03335 8.86756 7.01254C9.12223 6.9885 9.37915 7.00517 9.62849 7.06193C9.98876 7.1442 10.3597 7.17095 10.7281 7.14126C11.3277 7.13258 11.9357 7.05757 12.514 7.30473C12.5793 7.32799 12.651 7.32613 12.7149 7.29949C12.9545 7.21773 13.1817 7.10387 13.3902 6.96109C14.0767 6.38103 14.9206 5.99668 15.5047 5.28927C15.5453 5.23988 15.6285 5.22799 15.6827 5.18684C15.7234 5.16564 15.7595 5.13671 15.7889 5.10168C15.8184 5.06665 15.8405 5.0262 15.8542 4.98267C15.8678 4.93914 15.8727 4.89337 15.8684 4.84798C15.8642 4.80259 15.851 4.75846 15.8296 4.71813C15.7639 4.4991 15.7106 4.27659 15.67 4.05164C15.5972 3.6218 15.543 3.18875 15.4743 2.75867C15.4586 2.66783 15.4263 2.58059 15.379 2.50123C15.3491 2.44956 15.2755 2.37799 15.2333 2.38531C14.7774 2.45984 14.3228 2.54369 13.8696 2.63682C13.8406 2.64112 13.8127 2.65137 13.7879 2.66691C13.763 2.68245 13.7417 2.70294 13.7253 2.72708C13.7089 2.75123 13.6977 2.77849 13.6924 2.80716C13.6872 2.83582 13.688 2.86525 13.6949 2.89358C13.7569 3.34733 13.7709 3.80627 13.7366 4.26291C13.7394 4.92597 13.5607 4.86766 13.1401 5.03823C12.9867 5.08965 12.8252 5.11289 12.6635 5.10682C12.2929 5.11139 11.9203 5.07915 11.5506 5.0979C11.3313 5.1095 11.1119 5.07556 10.9065 4.99823C10.7012 4.92091 10.5144 4.8019 10.3581 4.64885C10.2248 4.5403 10.1164 4.40485 10.0401 4.25154C9.96377 4.09822 9.92124 3.93054 9.91534 3.75966C9.88841 3.46269 9.84103 3.16791 9.77352 2.87735C9.76105 2.8081 9.72339 2.74579 9.66767 2.70225C9.61195 2.65872 9.54205 2.63698 9.47123 2.64116C9.03082 2.63156 8.58993 2.62835 8.14998 2.63521C8.10755 2.63521 8.04414 2.71752 8.03053 2.77103C8.02293 2.83917 8.03178 2.90814 8.05636 2.97223C8.17647 3.55887 8.20602 4.16019 8.14398 4.75562C8.14985 4.8372 8.13796 4.91907 8.10911 4.99568C8.08026 5.07229 8.03512 5.14187 7.97677 5.19966C7.91842 5.25746 7.84822 5.30212 7.77092 5.33064C7.69362 5.35916 7.61104 5.37086 7.52878 5.36495C6.97215 5.37821 6.41552 5.37113 5.85888 5.36153C5.26398 5.35124 4.83486 4.98746 4.39929 4.65273C4.31722 4.572 4.26208 4.46827 4.24133 4.3555C4.17807 4.11121 4.13109 3.86307 4.10067 3.61266C4.07277 3.36115 4.07946 3.10736 4.06701 2.85471C4.05802 2.67523 3.98238 2.58354 3.82697 2.58034C3.57332 2.57508 3.31668 2.57623 3.06258 2.58743C3.0155 2.58751 2.97028 2.60565 2.93637 2.63803C2.90246 2.67042 2.8825 2.71454 2.88065 2.76119C2.87281 3.08151 2.87788 3.40344 2.87788 3.72514ZM10.4305 15.9851C10.6696 15.9851 10.8545 15.9837 11.0401 15.9851C11.4347 15.988 11.8287 15.9933 12.2223 15.9951C12.3953 15.9951 12.4681 15.9163 12.4439 15.7338C12.384 15.279 12.3102 14.8261 12.253 14.3713C12.1728 13.7342 12.0983 13.0963 12.0296 12.4576C11.9834 12.0232 11.9279 11.5904 11.9143 11.1557C11.8995 10.6738 11.6998 10.2124 11.7688 9.72193C11.7703 9.69886 11.7669 9.67573 11.7587 9.65408C11.7506 9.63243 11.7378 9.61275 11.7214 9.59637C11.7049 9.57999 11.6851 9.56728 11.6633 9.55908C11.6415 9.55089 11.6182 9.54739 11.5949 9.54884C11.3637 9.53262 11.1316 9.53101 10.9002 9.54404C9.95477 9.62521 9.00937 9.71804 8.06559 9.80721C8.01924 9.80511 7.97311 9.81454 7.93138 9.83464C7.86221 9.88654 7.75983 9.94897 7.75291 10.0164C7.73169 10.2359 7.62009 10.4623 7.76329 10.6795C7.93853 10.6337 8.11239 10.5816 8.28971 10.5423C8.42398 10.5085 8.56167 10.4899 8.70015 10.4867C8.81458 10.4938 8.92704 10.5196 9.03289 10.5633C9.09956 10.5849 9.15793 10.6262 9.20012 10.6818C9.24231 10.7373 9.26628 10.8043 9.26877 10.8738C9.28254 10.954 9.26912 11.0364 9.23061 11.1083C9.19211 11.1801 9.13068 11.2372 9.05594 11.2707C8.90704 11.3327 8.75394 11.3843 8.59777 11.4251C8.2655 11.5222 7.93231 11.613 7.60026 11.7106C7.55965 11.7303 7.5222 11.7558 7.48912 11.7863C7.55062 11.8074 7.61501 11.8189 7.68005 11.8206C7.77044 11.8099 7.85736 11.7539 7.9466 11.752C8.20015 11.736 8.45459 11.7399 8.70753 11.7635C8.822 11.7876 8.92486 11.8494 8.99941 11.9389C9.07396 12.0283 9.11583 12.1402 9.11821 12.2562C9.12169 12.3718 9.08695 12.4854 9.01931 12.5796C8.95167 12.6738 8.85482 12.7436 8.74351 12.7782C8.67733 12.7989 8.6093 12.8134 8.54036 12.8214C8.17888 12.9021 7.80982 12.9447 7.43932 12.9485C7.3711 12.9317 7.29909 12.9391 7.23586 12.9696C7.17264 13.0001 7.12223 13.0516 7.09344 13.1152C7.04917 13.2199 7.1444 13.2585 7.40681 13.2419C7.54516 13.2329 7.68351 13.219 7.82301 13.2142C8.00996 13.2124 8.19263 13.2697 8.34459 13.3777C8.40835 13.4176 8.46207 13.4715 8.50166 13.5351C8.54125 13.5988 8.56567 13.6705 8.57305 13.7449C8.58043 13.8194 8.57059 13.8945 8.54426 13.9645C8.51794 14.0346 8.47583 14.0978 8.42115 14.1493C8.23622 14.3261 7.99921 14.4398 7.74461 14.4738C7.446 14.5124 7.1497 14.5593 6.8534 14.6109C6.78793 14.6285 6.72595 14.657 6.67008 14.6951C6.6574 14.7022 6.6544 14.7376 6.65786 14.758C6.66132 14.7783 6.68092 14.8094 6.69176 14.8094C6.77938 14.8094 6.86677 14.7941 6.9537 14.7975C7.11294 14.791 7.27236 14.8049 7.42801 14.8389C7.5069 14.8622 7.57661 14.909 7.62762 14.9731C7.67863 15.0371 7.70846 15.1152 7.71302 15.1967C7.72189 15.2776 7.70511 15.3592 7.66502 15.4302C7.62494 15.5012 7.56353 15.558 7.48935 15.5927C7.36822 15.658 7.23565 15.6998 7.09874 15.716C6.91589 15.7352 6.7298 15.713 6.54349 15.716C6.47494 15.7105 6.40637 15.7264 6.34749 15.7617C6.28464 15.8247 6.23599 15.9002 6.20476 15.9832C6.17294 16.0592 6.25572 16.125 6.38577 16.1266C6.68761 16.1305 6.98944 16.141 7.28966 16.1282C8.3552 16.0859 9.41865 16.0326 10.4305 15.9851ZM10.7187 17.6697C10.7187 17.6763 10.7187 17.6825 10.7198 17.6889C10.9043 17.6889 11.0906 17.6919 11.2758 17.6889C12.0153 17.6848 12.7522 17.6 13.473 17.436C13.5019 17.4294 13.5192 17.369 13.5351 17.3309C13.5383 17.3233 13.5099 17.2936 13.4919 17.2892C13.0506 17.1774 12.6231 17.0213 12.1476 17.0579C11.7087 17.0765 11.269 17.058 10.8333 17.0025C10.2342 16.9422 9.63056 16.9412 9.03127 16.9996C8.57195 17.0476 8.11077 17.0743 7.65145 17.1221C7.46872 17.1325 7.28758 17.1618 7.11096 17.2094C6.93644 17.2752 6.744 17.2771 6.56816 17.2149C6.25802 17.1198 5.93281 17.0824 5.60893 17.1045C5.12471 17.0999 4.63794 17.0974 4.15301 17.0926C4.04856 17.0915 3.96694 17.1354 3.95356 17.2348C3.93729 17.322 3.94941 17.412 3.98815 17.4918C4.0391 17.5675 4.11687 17.6214 4.20605 17.6429C4.49951 17.7074 4.79796 17.7472 5.09818 17.7616C6.25526 17.7734 7.41242 17.772 8.56965 17.7575C9.28723 17.7468 10.0025 17.7001 10.7187 17.6697ZM11.0357 8.75615C11.0357 8.76758 11.0378 8.77901 11.0387 8.7909C11.4563 8.7909 11.8742 8.79273 12.2913 8.78975C12.402 8.78975 12.4453 8.7031 12.3957 8.5961C12.3575 8.51287 12.3183 8.42919 12.2758 8.34779C12.2465 8.28458 12.1988 8.23147 12.1389 8.19526C12.079 8.15906 12.0095 8.1414 11.9394 8.14454C11.2217 8.12147 10.5032 8.14714 9.78898 8.22136C9.10476 8.3481 8.40974 8.40859 7.71371 8.40198C7.41267 8.38214 7.1107 8.42289 6.82596 8.52179C6.71144 8.5771 6.58654 8.60811 6.45925 8.61283C6.33196 8.61755 6.20507 8.59589 6.0867 8.54922C6.0203 8.5179 5.90915 8.55906 5.82591 8.58764C5.75097 8.61348 5.79663 8.73878 5.905 8.87687C5.96436 8.94689 6.03955 9.00202 6.12446 9.03778C6.20936 9.07353 6.30158 9.0889 6.39361 9.08264C7.34402 9.08678 8.29377 9.03257 9.23742 8.92032C9.83763 8.87207 10.4362 8.81011 11.0357 8.75615ZM3.80691 21.2948C3.79423 21.2516 3.78131 21.2084 3.76863 21.1652C3.73629 21.1953 3.70674 21.2283 3.68032 21.2637C3.65393 21.3014 3.63723 21.3448 3.63167 21.3904C3.63167 21.4226 3.66556 21.4818 3.68493 21.4818C3.70517 21.4806 3.72489 21.4749 3.74264 21.4652C3.7604 21.4555 3.77574 21.4419 3.78754 21.4256C3.8023 21.3833 3.80887 21.3386 3.80691 21.2939V21.2948ZM4.90265 21.4153C4.89135 21.3764 4.87959 21.3375 4.8676 21.2987C4.84431 21.3276 4.82671 21.3605 4.81572 21.3959C4.81342 21.4171 4.8503 21.4416 4.86967 21.4658C4.88051 21.4491 4.89181 21.4311 4.90265 21.4153Z"/>
</mask>
<path fill-rule="evenodd" clip-rule="evenodd" d="M8.95403 1.65548C9.3481 1.65548 9.74263 1.65662 10.1367 1.65548C10.3115 1.6395 10.4863 1.68672 10.6288 1.78845C10.7713 1.89017 10.872 2.03954 10.9122 2.20903C11.0465 2.59996 11.1373 3.00432 11.1829 3.41487C11.1978 3.57492 11.2032 3.73497 11.2163 3.89662C11.2172 3.95427 11.2382 4.00984 11.2758 4.05383C11.3134 4.09783 11.3652 4.12753 11.4224 4.13784C11.5096 4.16921 11.5997 4.19218 11.6913 4.20643C12.0372 4.21947 12.3844 4.22746 12.7317 4.22152C12.755 4.22011 12.7779 4.21402 12.7988 4.20362C12.8197 4.19321 12.8382 4.17871 12.8533 4.161C12.8684 4.14328 12.8797 4.1227 12.8865 4.10053C12.8934 4.07835 12.8956 4.05504 12.8931 4.03198C12.8663 3.82863 12.8262 3.62723 12.773 3.42905C12.7084 3.18601 12.6266 2.94708 12.553 2.70609C12.422 2.27625 12.6199 1.94769 12.8963 1.65068C12.9588 1.582 13.0436 1.53726 13.1359 1.52425C13.8867 1.48812 14.5815 1.21192 15.2963 1.02833C15.4178 0.990122 15.5483 0.990576 15.6695 1.02961C15.7908 1.06864 15.8966 1.1443 15.9723 1.246C16.0766 1.36867 16.1606 1.50706 16.2209 1.65594C16.3222 1.88754 16.4035 2.12726 16.464 2.37251C16.6316 3.11079 16.7612 3.85867 16.9463 4.59169C16.9982 4.7561 17.0127 4.92986 16.9888 5.10048C16.9649 5.27111 16.9031 5.43436 16.808 5.5785C16.6153 5.89189 16.3912 6.18527 16.1393 6.4542C15.7669 6.79987 15.3743 7.12335 14.9633 7.42295C14.8179 7.53815 14.649 7.62068 14.4682 7.66484C14.1148 7.77412 13.7765 7.92683 13.4613 8.11939C13.3499 8.17358 13.2572 8.26571 13.2851 8.3878C13.4216 8.98227 13.1073 9.45739 12.8687 9.94531C12.7822 10.1027 12.7555 10.2856 12.7933 10.4609C13.0605 11.8581 13.3492 13.2517 13.5323 14.6631C13.6003 15.186 13.6391 15.7128 13.6882 16.238C13.6891 16.283 13.704 16.3267 13.7307 16.3632C13.7575 16.3996 13.7949 16.4271 13.8378 16.4419C14.0945 16.548 14.3486 16.6598 14.6015 16.7734C14.8109 16.8737 14.9949 17.0194 15.1397 17.1998C15.2271 17.275 15.293 17.3716 15.3311 17.4799C15.3692 17.5882 15.378 17.7044 15.3567 17.8172C15.3419 17.8966 15.3484 17.9785 15.3754 18.0548C15.4025 18.131 15.4492 18.1988 15.5109 18.2516C16.0196 18.8518 16.3696 19.5681 16.5294 20.3359C16.5929 20.6041 16.5944 20.8831 16.534 21.152C16.4736 21.4209 16.3528 21.6729 16.1806 21.889C15.9338 22.228 15.5854 22.4811 15.1851 22.6122C14.886 22.7372 14.5718 22.823 14.2503 22.8674C13.563 22.9163 12.8857 23.0889 12.179 22.9419C11.6962 22.8785 11.209 22.8542 10.7222 22.8692C10.2149 22.848 9.70528 22.8194 9.19592 22.8057C8.94135 22.7961 8.68642 22.8037 8.4329 22.8285C7.55673 22.931 6.67199 22.9401 5.79386 22.8557C4.84316 22.7558 3.89637 22.7668 2.94752 22.7563C2.55341 22.7552 2.16087 22.7069 1.77845 22.6125C1.52542 22.5604 1.3035 22.4111 1.16127 22.1972C1.01904 21.9833 0.968098 21.7222 1.0196 21.4711C1.02199 21.4247 1.02926 21.3787 1.04127 21.3339C1.35187 20.4463 1.58522 19.5233 2.17552 18.7587C2.47067 18.3769 2.68419 17.9356 3.04021 17.5972C3.09755 17.5261 3.12645 17.4366 3.12138 17.3457C3.12201 17.1147 3.18482 16.888 3.30331 16.6891C3.36265 16.5506 3.45624 16.4292 3.57542 16.3362C3.6946 16.2431 3.83551 16.1813 3.98515 16.1566C4.19268 16.1355 4.25862 16.0148 4.30797 15.8561C4.5042 15.2198 4.7025 14.5837 4.89204 13.9454C5.20587 12.8884 5.47888 11.8211 5.70278 10.7419C5.73045 10.6072 5.74889 10.4703 5.77518 10.3351C5.82568 10.0816 5.77703 9.88471 5.4941 9.79897C5.41509 9.77869 5.34467 9.73394 5.29308 9.67123C5.24149 9.60852 5.21142 9.53113 5.20725 9.4503C5.18287 9.34005 5.13731 9.23549 5.07305 9.14233C4.95776 8.94387 4.83878 8.74655 4.70919 8.55701C4.66581 8.47977 4.59569 8.42072 4.51181 8.39078C4.03514 8.2892 3.58379 8.09408 3.18433 7.8169C2.90763 7.64931 2.61756 7.50045 2.34892 7.32142C2.13796 7.18139 1.9403 7.0226 1.75839 6.84701C1.60745 6.70271 1.48848 6.5288 1.40908 6.33637C1.32967 6.14395 1.29158 5.93724 1.29722 5.72941C1.28216 5.06291 1.31583 4.39619 1.39799 3.73451C1.43161 3.41427 1.44386 3.09218 1.43465 2.77034C1.43765 2.61029 1.42105 2.44865 1.42151 2.28791C1.42474 1.73529 1.61612 1.52882 2.15684 1.50802C2.57397 1.49201 2.99133 1.48767 3.40892 1.48241C3.71076 1.47852 4.01236 1.48972 4.31327 1.48012C4.45191 1.46754 4.59113 1.49684 4.71266 1.56417C4.83419 1.6315 4.93233 1.73372 4.99419 1.85738C5.15029 2.08685 5.22767 2.36008 5.21486 2.63658C5.17128 3.12702 5.32301 3.58979 5.40994 4.06125C5.45606 4.31275 5.54091 4.3523 5.78717 4.33309C6.06387 4.3116 6.34058 4.30406 6.61867 4.29537C6.96454 4.28417 7.01065 4.24301 6.99152 3.87924C6.98114 3.67347 6.94125 3.47021 6.9145 3.26558C6.8614 2.97116 6.85471 2.67034 6.89467 2.37388C6.90569 2.18734 6.98826 2.01204 7.12546 1.88394C7.26267 1.75585 7.44409 1.68466 7.63254 1.68498C8.07065 1.65297 8.51246 1.64794 8.95287 1.63102L8.95403 1.65548ZM5.20079 20.407C5.41455 20.3862 5.45306 20.1573 5.61055 20.0665C5.67079 20.0331 5.74085 20.0212 5.80887 20.0331C5.87689 20.0449 5.9387 20.0797 5.98386 20.1315C6.03589 20.1932 6.07257 20.2662 6.09095 20.3445C6.10934 20.4229 6.10891 20.5044 6.0897 20.5826C6.00969 20.846 5.93221 21.1105 5.84689 21.3723C5.81692 21.4658 5.86995 21.4974 5.93797 21.5147C5.95944 21.5218 5.98216 21.5245 6.00469 21.5225C6.02722 21.5204 6.0491 21.5138 6.06895 21.5031C6.13231 21.4386 6.18964 21.3686 6.24027 21.2939C6.36409 21.1281 6.47754 20.9548 6.61082 20.7966C6.64516 20.749 6.69646 20.7161 6.75433 20.7045C6.8122 20.693 6.87234 20.7036 6.92257 20.7344C7.00936 20.8037 7.07689 20.8938 7.1188 20.9962C7.14324 21.0485 7.11073 21.129 7.09713 21.1956C7.07665 21.2606 7.0607 21.327 7.04939 21.3943C7.0518 21.4152 7.05904 21.4353 7.07056 21.4531C7.08208 21.4708 7.09756 21.4856 7.1158 21.4965C7.15999 21.5198 7.20872 21.5336 7.25871 21.5367C7.30869 21.5398 7.35877 21.5323 7.40557 21.5146C7.45238 21.4969 7.49481 21.4695 7.53003 21.4342C7.56524 21.3989 7.59241 21.3565 7.60971 21.3099C7.66373 21.1589 7.72703 21.0114 7.79926 20.8682C7.8326 20.8141 7.87779 20.7682 7.93148 20.7339C7.98516 20.6995 8.04596 20.6776 8.10935 20.6697C8.17275 20.6619 8.23713 20.6683 8.29769 20.6884C8.35825 20.7086 8.41345 20.7421 8.45919 20.7863C8.54151 20.8512 8.60163 20.9396 8.63134 21.0397C8.66106 21.1397 8.65892 21.2463 8.62522 21.3451C8.58625 21.4612 8.65727 21.5099 8.76357 21.5125C8.90192 21.5159 9.04027 21.5166 9.17862 21.5125C10.2197 21.4766 11.2615 21.5056 12.3026 21.4226C12.9713 21.3693 13.6462 21.4071 14.3177 21.3997C14.6174 21.3963 14.9197 21.3881 15.2202 21.3712C15.4697 21.3572 15.5174 21.2877 15.4441 21.0778C15.406 20.9692 15.3657 20.862 15.3246 20.7548C15.0373 20.0071 14.7062 19.2789 14.3626 18.5555C14.348 18.5123 14.3197 18.4751 14.282 18.4492C14.2443 18.4234 14.1991 18.4104 14.1533 18.4121C13.8074 18.4263 13.4597 18.4432 13.1129 18.4667C12.8592 18.4834 12.6056 18.5104 12.3535 18.5353C12.0077 18.5692 11.6646 18.6092 11.3196 18.6389C11.1579 18.6353 10.9962 18.6417 10.8354 18.6581C10.3096 18.7437 9.77707 18.782 9.24434 18.7724C9.03681 18.7797 8.82928 18.7953 8.62175 18.8102C8.34505 18.8296 8.06835 18.8744 7.79303 18.8682C7.09989 18.8522 6.40722 18.8143 5.71408 18.7843C5.59919 18.7723 5.48374 18.7661 5.3682 18.7658C5.28516 18.7725 5.20416 18.7949 5.12955 18.8317C5.13844 19.0142 5.17868 19.1939 5.24853 19.363C5.31329 19.485 5.34579 19.6212 5.34301 19.759C5.34023 19.8968 5.30225 20.0316 5.23262 20.1509C5.21071 20.2384 5.20431 20.329 5.21371 20.4186C5.17912 20.4415 5.12954 20.4568 5.11433 20.4888C5.09911 20.5208 5.11871 20.568 5.12286 20.6084C5.14592 20.5856 5.18097 20.5664 5.1895 20.5398C5.19863 20.4962 5.20241 20.4515 5.20079 20.407ZM2.87788 3.72514H2.82923C2.82923 3.83946 2.82323 3.95561 2.82923 4.07016C2.84306 4.29766 2.86336 4.5247 2.88042 4.75174C3.15712 4.75929 3.21384 4.48012 3.3967 4.36602C3.41584 4.35368 3.43405 4.33058 3.45365 4.32921C3.51635 4.31424 3.58191 4.31565 3.64389 4.33333C3.67324 4.35005 3.69839 4.37313 3.71747 4.40084C3.73656 4.42856 3.74908 4.46019 3.75411 4.49338C3.7432 4.60642 3.70889 4.716 3.65334 4.8153C3.5136 5.05377 3.35196 5.27898 3.21108 5.51654C3.17397 5.5984 3.14993 5.68549 3.13983 5.77468C3.1366 5.79137 3.1562 5.81835 3.17234 5.83206C3.17994 5.83687 3.18866 5.83967 3.19766 5.84019C3.20666 5.84071 3.21564 5.83894 3.22376 5.83504C3.34644 5.69848 3.47662 5.56872 3.61368 5.44635C3.65069 5.42321 3.69216 5.40802 3.73545 5.40172C3.77873 5.39542 3.82286 5.39816 3.86502 5.40977C3.92113 5.42752 3.96927 5.46409 4.00116 5.51319C4.03305 5.56229 4.04671 5.62088 4.0398 5.67888C4.02371 5.76891 3.99988 5.85741 3.96855 5.94341C3.92243 6.13273 3.95057 6.27905 4.0405 6.30672C4.17608 6.3481 4.24802 6.25802 4.32965 6.17205C4.43772 6.05305 4.5544 5.94202 4.67875 5.83984C4.71286 5.81813 4.75141 5.8042 4.79161 5.79905C4.83181 5.7939 4.87267 5.79767 4.91123 5.81007C4.94978 5.82247 4.98509 5.8432 5.01458 5.87076C5.04408 5.89833 5.06705 5.93205 5.08181 5.96948C5.11591 6.05268 5.12965 6.1427 5.12193 6.23219C5.09887 6.39018 5.04584 6.54451 5.00895 6.70113C4.99569 6.7678 5.00849 6.83696 5.04476 6.89462C5.08103 6.95228 5.13804 6.9941 5.20426 7.01162C5.34169 7.0135 5.47889 7.02335 5.61516 7.04112C6.2096 7.21077 6.8142 7.12297 7.4121 7.11108C7.89749 7.10102 8.38172 7.03335 8.86756 7.01254C9.12223 6.9885 9.37915 7.00517 9.62849 7.06193C9.98876 7.1442 10.3597 7.17095 10.7281 7.14126C11.3277 7.13258 11.9357 7.05757 12.514 7.30473C12.5793 7.32799 12.651 7.32613 12.7149 7.29949C12.9545 7.21773 13.1817 7.10387 13.3902 6.96109C14.0767 6.38103 14.9206 5.99668 15.5047 5.28927C15.5453 5.23988 15.6285 5.22799 15.6827 5.18684C15.7234 5.16564 15.7595 5.13671 15.7889 5.10168C15.8184 5.06665 15.8405 5.0262 15.8542 4.98267C15.8678 4.93914 15.8727 4.89337 15.8684 4.84798C15.8642 4.80259 15.851 4.75846 15.8296 4.71813C15.7639 4.4991 15.7106 4.27659 15.67 4.05164C15.5972 3.6218 15.543 3.18875 15.4743 2.75867C15.4586 2.66783 15.4263 2.58059 15.379 2.50123C15.3491 2.44956 15.2755 2.37799 15.2333 2.38531C14.7774 2.45984 14.3228 2.54369 13.8696 2.63682C13.8406 2.64112 13.8127 2.65137 13.7879 2.66691C13.763 2.68245 13.7417 2.70294 13.7253 2.72708C13.7089 2.75123 13.6977 2.77849 13.6924 2.80716C13.6872 2.83582 13.688 2.86525 13.6949 2.89358C13.7569 3.34733 13.7709 3.80627 13.7366 4.26291C13.7394 4.92597 13.5607 4.86766 13.1401 5.03823C12.9867 5.08965 12.8252 5.11289 12.6635 5.10682C12.2929 5.11139 11.9203 5.07915 11.5506 5.0979C11.3313 5.1095 11.1119 5.07556 10.9065 4.99823C10.7012 4.92091 10.5144 4.8019 10.3581 4.64885C10.2248 4.5403 10.1164 4.40485 10.0401 4.25154C9.96377 4.09822 9.92124 3.93054 9.91534 3.75966C9.88841 3.46269 9.84103 3.16791 9.77352 2.87735C9.76105 2.8081 9.72339 2.74579 9.66767 2.70225C9.61195 2.65872 9.54205 2.63698 9.47123 2.64116C9.03082 2.63156 8.58993 2.62835 8.14998 2.63521C8.10755 2.63521 8.04414 2.71752 8.03053 2.77103C8.02293 2.83917 8.03178 2.90814 8.05636 2.97223C8.17647 3.55887 8.20602 4.16019 8.14398 4.75562C8.14985 4.8372 8.13796 4.91907 8.10911 4.99568C8.08026 5.07229 8.03512 5.14187 7.97677 5.19966C7.91842 5.25746 7.84822 5.30212 7.77092 5.33064C7.69362 5.35916 7.61104 5.37086 7.52878 5.36495C6.97215 5.37821 6.41552 5.37113 5.85888 5.36153C5.26398 5.35124 4.83486 4.98746 4.39929 4.65273C4.31722 4.572 4.26208 4.46827 4.24133 4.3555C4.17807 4.11121 4.13109 3.86307 4.10067 3.61266C4.07277 3.36115 4.07946 3.10736 4.06701 2.85471C4.05802 2.67523 3.98238 2.58354 3.82697 2.58034C3.57332 2.57508 3.31668 2.57623 3.06258 2.58743C3.0155 2.58751 2.97028 2.60565 2.93637 2.63803C2.90246 2.67042 2.8825 2.71454 2.88065 2.76119C2.87281 3.08151 2.87788 3.40344 2.87788 3.72514ZM10.4305 15.9851C10.6696 15.9851 10.8545 15.9837 11.0401 15.9851C11.4347 15.988 11.8287 15.9933 12.2223 15.9951C12.3953 15.9951 12.4681 15.9163 12.4439 15.7338C12.384 15.279 12.3102 14.8261 12.253 14.3713C12.1728 13.7342 12.0983 13.0963 12.0296 12.4576C11.9834 12.0232 11.9279 11.5904 11.9143 11.1557C11.8995 10.6738 11.6998 10.2124 11.7688 9.72193C11.7703 9.69886 11.7669 9.67573 11.7587 9.65408C11.7506 9.63243 11.7378 9.61275 11.7214 9.59637C11.7049 9.57999 11.6851 9.56728 11.6633 9.55908C11.6415 9.55089 11.6182 9.54739 11.5949 9.54884C11.3637 9.53262 11.1316 9.53101 10.9002 9.54404C9.95477 9.62521 9.00937 9.71804 8.06559 9.80721C8.01924 9.80511 7.97311 9.81454 7.93138 9.83464C7.86221 9.88654 7.75983 9.94897 7.75291 10.0164C7.73169 10.2359 7.62009 10.4623 7.76329 10.6795C7.93853 10.6337 8.11239 10.5816 8.28971 10.5423C8.42398 10.5085 8.56167 10.4899 8.70015 10.4867C8.81458 10.4938 8.92704 10.5196 9.03289 10.5633C9.09956 10.5849 9.15793 10.6262 9.20012 10.6818C9.24231 10.7373 9.26628 10.8043 9.26877 10.8738C9.28254 10.954 9.26912 11.0364 9.23061 11.1083C9.19211 11.1801 9.13068 11.2372 9.05594 11.2707C8.90704 11.3327 8.75394 11.3843 8.59777 11.4251C8.2655 11.5222 7.93231 11.613 7.60026 11.7106C7.55965 11.7303 7.5222 11.7558 7.48912 11.7863C7.55062 11.8074 7.61501 11.8189 7.68005 11.8206C7.77044 11.8099 7.85736 11.7539 7.9466 11.752C8.20015 11.736 8.45459 11.7399 8.70753 11.7635C8.822 11.7876 8.92486 11.8494 8.99941 11.9389C9.07396 12.0283 9.11583 12.1402 9.11821 12.2562C9.12169 12.3718 9.08695 12.4854 9.01931 12.5796C8.95167 12.6738 8.85482 12.7436 8.74351 12.7782C8.67733 12.7989 8.6093 12.8134 8.54036 12.8214C8.17888 12.9021 7.80982 12.9447 7.43932 12.9485C7.3711 12.9317 7.29909 12.9391 7.23586 12.9696C7.17264 13.0001 7.12223 13.0516 7.09344 13.1152C7.04917 13.2199 7.1444 13.2585 7.40681 13.2419C7.54516 13.2329 7.68351 13.219 7.82301 13.2142C8.00996 13.2124 8.19263 13.2697 8.34459 13.3777C8.40835 13.4176 8.46207 13.4715 8.50166 13.5351C8.54125 13.5988 8.56567 13.6705 8.57305 13.7449C8.58043 13.8194 8.57059 13.8945 8.54426 13.9645C8.51794 14.0346 8.47583 14.0978 8.42115 14.1493C8.23622 14.3261 7.99921 14.4398 7.74461 14.4738C7.446 14.5124 7.1497 14.5593 6.8534 14.6109C6.78793 14.6285 6.72595 14.657 6.67008 14.6951C6.6574 14.7022 6.6544 14.7376 6.65786 14.758C6.66132 14.7783 6.68092 14.8094 6.69176 14.8094C6.77938 14.8094 6.86677 14.7941 6.9537 14.7975C7.11294 14.791 7.27236 14.8049 7.42801 14.8389C7.5069 14.8622 7.57661 14.909 7.62762 14.9731C7.67863 15.0371 7.70846 15.1152 7.71302 15.1967C7.72189 15.2776 7.70511 15.3592 7.66502 15.4302C7.62494 15.5012 7.56353 15.558 7.48935 15.5927C7.36822 15.658 7.23565 15.6998 7.09874 15.716C6.91589 15.7352 6.7298 15.713 6.54349 15.716C6.47494 15.7105 6.40637 15.7264 6.34749 15.7617C6.28464 15.8247 6.23599 15.9002 6.20476 15.9832C6.17294 16.0592 6.25572 16.125 6.38577 16.1266C6.68761 16.1305 6.98944 16.141 7.28966 16.1282C8.3552 16.0859 9.41865 16.0326 10.4305 15.9851ZM10.7187 17.6697C10.7187 17.6763 10.7187 17.6825 10.7198 17.6889C10.9043 17.6889 11.0906 17.6919 11.2758 17.6889C12.0153 17.6848 12.7522 17.6 13.473 17.436C13.5019 17.4294 13.5192 17.369 13.5351 17.3309C13.5383 17.3233 13.5099 17.2936 13.4919 17.2892C13.0506 17.1774 12.6231 17.0213 12.1476 17.0579C11.7087 17.0765 11.269 17.058 10.8333 17.0025C10.2342 16.9422 9.63056 16.9412 9.03127 16.9996C8.57195 17.0476 8.11077 17.0743 7.65145 17.1221C7.46872 17.1325 7.28758 17.1618 7.11096 17.2094C6.93644 17.2752 6.744 17.2771 6.56816 17.2149C6.25802 17.1198 5.93281 17.0824 5.60893 17.1045C5.12471 17.0999 4.63794 17.0974 4.15301 17.0926C4.04856 17.0915 3.96694 17.1354 3.95356 17.2348C3.93729 17.322 3.94941 17.412 3.98815 17.4918C4.0391 17.5675 4.11687 17.6214 4.20605 17.6429C4.49951 17.7074 4.79796 17.7472 5.09818 17.7616C6.25526 17.7734 7.41242 17.772 8.56965 17.7575C9.28723 17.7468 10.0025 17.7001 10.7187 17.6697ZM11.0357 8.75615C11.0357 8.76758 11.0378 8.77901 11.0387 8.7909C11.4563 8.7909 11.8742 8.79273 12.2913 8.78975C12.402 8.78975 12.4453 8.7031 12.3957 8.5961C12.3575 8.51287 12.3183 8.42919 12.2758 8.34779C12.2465 8.28458 12.1988 8.23147 12.1389 8.19526C12.079 8.15906 12.0095 8.1414 11.9394 8.14454C11.2217 8.12147 10.5032 8.14714 9.78898 8.22136C9.10476 8.3481 8.40974 8.40859 7.71371 8.40198C7.41267 8.38214 7.1107 8.42289 6.82596 8.52179C6.71144 8.5771 6.58654 8.60811 6.45925 8.61283C6.33196 8.61755 6.20507 8.59589 6.0867 8.54922C6.0203 8.5179 5.90915 8.55906 5.82591 8.58764C5.75097 8.61348 5.79663 8.73878 5.905 8.87687C5.96436 8.94689 6.03955 9.00202 6.12446 9.03778C6.20936 9.07353 6.30158 9.0889 6.39361 9.08264C7.34402 9.08678 8.29377 9.03257 9.23742 8.92032C9.83763 8.87207 10.4362 8.81011 11.0357 8.75615ZM3.80691 21.2948C3.79423 21.2516 3.78131 21.2084 3.76863 21.1652C3.73629 21.1953 3.70674 21.2283 3.68032 21.2637C3.65393 21.3014 3.63723 21.3448 3.63167 21.3904C3.63167 21.4226 3.66556 21.4818 3.68493 21.4818C3.70517 21.4806 3.72489 21.4749 3.74264 21.4652C3.7604 21.4555 3.77574 21.4419 3.78754 21.4256C3.8023 21.3833 3.80887 21.3386 3.80691 21.2939V21.2948ZM4.90265 21.4153C4.89135 21.3764 4.87959 21.3375 4.8676 21.2987C4.84431 21.3276 4.82671 21.3605 4.81572 21.3959C4.81342 21.4171 4.8503 21.4416 4.86967 21.4658C4.88051 21.4491 4.89181 21.4311 4.90265 21.4153Z" fill="white"/>
<path fill-rule="evenodd" clip-rule="evenodd" d="M8.95403 1.65548C9.3481 1.65548 9.74263 1.65662 10.1367 1.65548C10.3115 1.6395 10.4863 1.68672 10.6288 1.78845C10.7713 1.89017 10.872 2.03954 10.9122 2.20903C11.0465 2.59996 11.1373 3.00432 11.1829 3.41487C11.1978 3.57492 11.2032 3.73497 11.2163 3.89662C11.2172 3.95427 11.2382 4.00984 11.2758 4.05383C11.3134 4.09783 11.3652 4.12753 11.4224 4.13784C11.5096 4.16921 11.5997 4.19218 11.6913 4.20643C12.0372 4.21947 12.3844 4.22746 12.7317 4.22152C12.755 4.22011 12.7779 4.21402 12.7988 4.20362C12.8197 4.19321 12.8382 4.17871 12.8533 4.161C12.8684 4.14328 12.8797 4.1227 12.8865 4.10053C12.8934 4.07835 12.8956 4.05504 12.8931 4.03198C12.8663 3.82863 12.8262 3.62723 12.773 3.42905C12.7084 3.18601 12.6266 2.94708 12.553 2.70609C12.422 2.27625 12.6199 1.94769 12.8963 1.65068C12.9588 1.582 13.0436 1.53726 13.1359 1.52425C13.8867 1.48812 14.5815 1.21192 15.2963 1.02833C15.4178 0.990122 15.5483 0.990576 15.6695 1.02961C15.7908 1.06864 15.8966 1.1443 15.9723 1.246C16.0766 1.36867 16.1606 1.50706 16.2209 1.65594C16.3222 1.88754 16.4035 2.12726 16.464 2.37251C16.6316 3.11079 16.7612 3.85867 16.9463 4.59169C16.9982 4.7561 17.0127 4.92986 16.9888 5.10048C16.9649 5.27111 16.9031 5.43436 16.808 5.5785C16.6153 5.89189 16.3912 6.18527 16.1393 6.4542C15.7669 6.79987 15.3743 7.12335 14.9633 7.42295C14.8179 7.53815 14.649 7.62068 14.4682 7.66484C14.1148 7.77412 13.7765 7.92683 13.4613 8.11939C13.3499 8.17358 13.2572 8.26571 13.2851 8.3878C13.4216 8.98227 13.1073 9.45739 12.8687 9.94531C12.7822 10.1027 12.7555 10.2856 12.7933 10.4609C13.0605 11.8581 13.3492 13.2517 13.5323 14.6631C13.6003 15.186 13.6391 15.7128 13.6882 16.238C13.6891 16.283 13.704 16.3267 13.7307 16.3632C13.7575 16.3996 13.7949 16.4271 13.8378 16.4419C14.0945 16.548 14.3486 16.6598 14.6015 16.7734C14.8109 16.8737 14.9949 17.0194 15.1397 17.1998C15.2271 17.275 15.293 17.3716 15.3311 17.4799C15.3692 17.5882 15.378 17.7044 15.3567 17.8172C15.3419 17.8966 15.3484 17.9785 15.3754 18.0548C15.4025 18.131 15.4492 18.1988 15.5109 18.2516C16.0196 18.8518 16.3696 19.5681 16.5294 20.3359C16.5929 20.6041 16.5944 20.8831 16.534 21.152C16.4736 21.4209 16.3528 21.6729 16.1806 21.889C15.9338 22.228 15.5854 22.4811 15.1851 22.6122C14.886 22.7372 14.5718 22.823 14.2503 22.8674C13.563 22.9163 12.8857 23.0889 12.179 22.9419C11.6962 22.8785 11.209 22.8542 10.7222 22.8692C10.2149 22.848 9.70528 22.8194 9.19592 22.8057C8.94135 22.7961 8.68642 22.8037 8.4329 22.8285C7.55673 22.931 6.67199 22.9401 5.79386 22.8557C4.84316 22.7558 3.89637 22.7668 2.94752 22.7563C2.55341 22.7552 2.16087 22.7069 1.77845 22.6125C1.52542 22.5604 1.3035 22.4111 1.16127 22.1972C1.01904 21.9833 0.968098 21.7222 1.0196 21.4711C1.02199 21.4247 1.02926 21.3787 1.04127 21.3339C1.35187 20.4463 1.58522 19.5233 2.17552 18.7587C2.47067 18.3769 2.68419 17.9356 3.04021 17.5972C3.09755 17.5261 3.12645 17.4366 3.12138 17.3457C3.12201 17.1147 3.18482 16.888 3.30331 16.6891C3.36265 16.5506 3.45624 16.4292 3.57542 16.3362C3.6946 16.2431 3.83551 16.1813 3.98515 16.1566C4.19268 16.1355 4.25862 16.0148 4.30797 15.8561C4.5042 15.2198 4.7025 14.5837 4.89204 13.9454C5.20587 12.8884 5.47888 11.8211 5.70278 10.7419C5.73045 10.6072 5.74889 10.4703 5.77518 10.3351C5.82568 10.0816 5.77703 9.88471 5.4941 9.79897C5.41509 9.77869 5.34467 9.73394 5.29308 9.67123C5.24149 9.60852 5.21142 9.53113 5.20725 9.4503C5.18287 9.34005 5.13731 9.23549 5.07305 9.14233C4.95776 8.94387 4.83878 8.74655 4.70919 8.55701C4.66581 8.47977 4.59569 8.42072 4.51181 8.39078C4.03514 8.2892 3.58379 8.09408 3.18433 7.8169C2.90763 7.64931 2.61756 7.50045 2.34892 7.32142C2.13796 7.18139 1.9403 7.0226 1.75839 6.84701C1.60745 6.70271 1.48848 6.5288 1.40908 6.33637C1.32967 6.14395 1.29158 5.93724 1.29722 5.72941C1.28216 5.06291 1.31583 4.39619 1.39799 3.73451C1.43161 3.41427 1.44386 3.09218 1.43465 2.77034C1.43765 2.61029 1.42105 2.44865 1.42151 2.28791C1.42474 1.73529 1.61612 1.52882 2.15684 1.50802C2.57397 1.49201 2.99133 1.48767 3.40892 1.48241C3.71076 1.47852 4.01236 1.48972 4.31327 1.48012C4.45191 1.46754 4.59113 1.49684 4.71266 1.56417C4.83419 1.6315 4.93233 1.73372 4.99419 1.85738C5.15029 2.08685 5.22767 2.36008 5.21486 2.63658C5.17128 3.12702 5.32301 3.58979 5.40994 4.06125C5.45606 4.31275 5.54091 4.3523 5.78717 4.33309C6.06387 4.3116 6.34058 4.30406 6.61867 4.29537C6.96454 4.28417 7.01065 4.24301 6.99152 3.87924C6.98114 3.67347 6.94125 3.47021 6.9145 3.26558C6.8614 2.97116 6.85471 2.67034 6.89467 2.37388C6.90569 2.18734 6.98826 2.01204 7.12546 1.88394C7.26267 1.75585 7.44409 1.68466 7.63254 1.68498C8.07065 1.65297 8.51246 1.64794 8.95287 1.63102L8.95403 1.65548ZM5.20079 20.407C5.41455 20.3862 5.45306 20.1573 5.61055 20.0665C5.67079 20.0331 5.74085 20.0212 5.80887 20.0331C5.87689 20.0449 5.9387 20.0797 5.98386 20.1315C6.03589 20.1932 6.07257 20.2662 6.09095 20.3445C6.10934 20.4229 6.10891 20.5044 6.0897 20.5826C6.00969 20.846 5.93221 21.1105 5.84689 21.3723C5.81692 21.4658 5.86995 21.4974 5.93797 21.5147C5.95944 21.5218 5.98216 21.5245 6.00469 21.5225C6.02722 21.5204 6.0491 21.5138 6.06895 21.5031C6.13231 21.4386 6.18964 21.3686 6.24027 21.2939C6.36409 21.1281 6.47754 20.9548 6.61082 20.7966C6.64516 20.749 6.69646 20.7161 6.75433 20.7045C6.8122 20.693 6.87234 20.7036 6.92257 20.7344C7.00936 20.8037 7.07689 20.8938 7.1188 20.9962C7.14324 21.0485 7.11073 21.129 7.09713 21.1956C7.07665 21.2606 7.0607 21.327 7.04939 21.3943C7.0518 21.4152 7.05904 21.4353 7.07056 21.4531C7.08208 21.4708 7.09756 21.4856 7.1158 21.4965C7.15999 21.5198 7.20872 21.5336 7.25871 21.5367C7.30869 21.5398 7.35877 21.5323 7.40557 21.5146C7.45238 21.4969 7.49481 21.4695 7.53003 21.4342C7.56524 21.3989 7.59241 21.3565 7.60971 21.3099C7.66373 21.1589 7.72703 21.0114 7.79926 20.8682C7.8326 20.8141 7.87779 20.7682 7.93148 20.7339C7.98516 20.6995 8.04596 20.6776 8.10935 20.6697C8.17275 20.6619 8.23713 20.6683 8.29769 20.6884C8.35825 20.7086 8.41345 20.7421 8.45919 20.7863C8.54151 20.8512 8.60163 20.9396 8.63134 21.0397C8.66106 21.1397 8.65892 21.2463 8.62522 21.3451C8.58625 21.4612 8.65727 21.5099 8.76357 21.5125C8.90192 21.5159 9.04027 21.5166 9.17862 21.5125C10.2197 21.4766 11.2615 21.5056 12.3026 21.4226C12.9713 21.3693 13.6462 21.4071 14.3177 21.3997C14.6174 21.3963 14.9197 21.3881 15.2202 21.3712C15.4697 21.3572 15.5174 21.2877 15.4441 21.0778C15.406 20.9692 15.3657 20.862 15.3246 20.7548C15.0373 20.0071 14.7062 19.2789 14.3626 18.5555C14.348 18.5123 14.3197 18.4751 14.282 18.4492C14.2443 18.4234 14.1991 18.4104 14.1533 18.4121C13.8074 18.4263 13.4597 18.4432 13.1129 18.4667C12.8592 18.4834 12.6056 18.5104 12.3535 18.5353C12.0077 18.5692 11.6646 18.6092 11.3196 18.6389C11.1579 18.6353 10.9962 18.6417 10.8354 18.6581C10.3096 18.7437 9.77707 18.782 9.24434 18.7724C9.03681 18.7797 8.82928 18.7953 8.62175 18.8102C8.34505 18.8296 8.06835 18.8744 7.79303 18.8682C7.09989 18.8522 6.40722 18.8143 5.71408 18.7843C5.59919 18.7723 5.48374 18.7661 5.3682 18.7658C5.28516 18.7725 5.20416 18.7949 5.12955 18.8317C5.13844 19.0142 5.17868 19.1939 5.24853 19.363C5.31329 19.485 5.34579 19.6212 5.34301 19.759C5.34023 19.8968 5.30225 20.0316 5.23262 20.1509C5.21071 20.2384 5.20431 20.329 5.21371 20.4186C5.17912 20.4415 5.12954 20.4568 5.11433 20.4888C5.09911 20.5208 5.11871 20.568 5.12286 20.6084C5.14592 20.5856 5.18097 20.5664 5.1895 20.5398C5.19863 20.4962 5.20241 20.4515 5.20079 20.407ZM2.87788 3.72514H2.82923C2.82923 3.83946 2.82323 3.95561 2.82923 4.07016C2.84306 4.29766 2.86336 4.5247 2.88042 4.75174C3.15712 4.75929 3.21384 4.48012 3.3967 4.36602C3.41584 4.35368 3.43405 4.33058 3.45365 4.32921C3.51635 4.31424 3.58191 4.31565 3.64389 4.33333C3.67324 4.35005 3.69839 4.37313 3.71747 4.40084C3.73656 4.42856 3.74908 4.46019 3.75411 4.49338C3.7432 4.60642 3.70889 4.716 3.65334 4.8153C3.5136 5.05377 3.35196 5.27898 3.21108 5.51654C3.17397 5.5984 3.14993 5.68549 3.13983 5.77468C3.1366 5.79137 3.1562 5.81835 3.17234 5.83206C3.17994 5.83687 3.18866 5.83967 3.19766 5.84019C3.20666 5.84071 3.21564 5.83894 3.22376 5.83504C3.34644 5.69848 3.47662 5.56872 3.61368 5.44635C3.65069 5.42321 3.69216 5.40802 3.73545 5.40172C3.77873 5.39542 3.82286 5.39816 3.86502 5.40977C3.92113 5.42752 3.96927 5.46409 4.00116 5.51319C4.03305 5.56229 4.04671 5.62088 4.0398 5.67888C4.02371 5.76891 3.99988 5.85741 3.96855 5.94341C3.92243 6.13273 3.95057 6.27905 4.0405 6.30672C4.17608 6.3481 4.24802 6.25802 4.32965 6.17205C4.43772 6.05305 4.5544 5.94202 4.67875 5.83984C4.71286 5.81813 4.75141 5.8042 4.79161 5.79905C4.83181 5.7939 4.87267 5.79767 4.91123 5.81007C4.94978 5.82247 4.98509 5.8432 5.01458 5.87076C5.04408 5.89833 5.06705 5.93205 5.08181 5.96948C5.11591 6.05268 5.12965 6.1427 5.12193 6.23219C5.09887 6.39018 5.04584 6.54451 5.00895 6.70113C4.99569 6.7678 5.00849 6.83696 5.04476 6.89462C5.08103 6.95228 5.13804 6.9941 5.20426 7.01162C5.34169 7.0135 5.47889 7.02335 5.61516 7.04112C6.2096 7.21077 6.8142 7.12297 7.4121 7.11108C7.89749 7.10102 8.38172 7.03335 8.86756 7.01254C9.12223 6.9885 9.37915 7.00517 9.62849 7.06193C9.98876 7.1442 10.3597 7.17095 10.7281 7.14126C11.3277 7.13258 11.9357 7.05757 12.514 7.30473C12.5793 7.32799 12.651 7.32613 12.7149 7.29949C12.9545 7.21773 13.1817 7.10387 13.3902 6.96109C14.0767 6.38103 14.9206 5.99668 15.5047 5.28927C15.5453 5.23988 15.6285 5.22799 15.6827 5.18684C15.7234 5.16564 15.7595 5.13671 15.7889 5.10168C15.8184 5.06665 15.8405 5.0262 15.8542 4.98267C15.8678 4.93914 15.8727 4.89337 15.8684 4.84798C15.8642 4.80259 15.851 4.75846 15.8296 4.71813C15.7639 4.4991 15.7106 4.27659 15.67 4.05164C15.5972 3.6218 15.543 3.18875 15.4743 2.75867C15.4586 2.66783 15.4263 2.58059 15.379 2.50123C15.3491 2.44956 15.2755 2.37799 15.2333 2.38531C14.7774 2.45984 14.3228 2.54369 13.8696 2.63682C13.8406 2.64112 13.8127 2.65137 13.7879 2.66691C13.763 2.68245 13.7417 2.70294 13.7253 2.72708C13.7089 2.75123 13.6977 2.77849 13.6924 2.80716C13.6872 2.83582 13.688 2.86525 13.6949 2.89358C13.7569 3.34733 13.7709 3.80627 13.7366 4.26291C13.7394 4.92597 13.5607 4.86766 13.1401 5.03823C12.9867 5.08965 12.8252 5.11289 12.6635 5.10682C12.2929 5.11139 11.9203 5.07915 11.5506 5.0979C11.3313 5.1095 11.1119 5.07556 10.9065 4.99823C10.7012 4.92091 10.5144 4.8019 10.3581 4.64885C10.2248 4.5403 10.1164 4.40485 10.0401 4.25154C9.96377 4.09822 9.92124 3.93054 9.91534 3.75966C9.88841 3.46269 9.84103 3.16791 9.77352 2.87735C9.76105 2.8081 9.72339 2.74579 9.66767 2.70225C9.61195 2.65872 9.54205 2.63698 9.47123 2.64116C9.03082 2.63156 8.58993 2.62835 8.14998 2.63521C8.10755 2.63521 8.04414 2.71752 8.03053 2.77103C8.02293 2.83917 8.03178 2.90814 8.05636 2.97223C8.17647 3.55887 8.20602 4.16019 8.14398 4.75562C8.14985 4.8372 8.13796 4.91907 8.10911 4.99568C8.08026 5.07229 8.03512 5.14187 7.97677 5.19966C7.91842 5.25746 7.84822 5.30212 7.77092 5.33064C7.69362 5.35916 7.61104 5.37086 7.52878 5.36495C6.97215 5.37821 6.41552 5.37113 5.85888 5.36153C5.26398 5.35124 4.83486 4.98746 4.39929 4.65273C4.31722 4.572 4.26208 4.46827 4.24133 4.3555C4.17807 4.11121 4.13109 3.86307 4.10067 3.61266C4.07277 3.36115 4.07946 3.10736 4.06701 2.85471C4.05802 2.67523 3.98238 2.58354 3.82697 2.58034C3.57332 2.57508 3.31668 2.57623 3.06258 2.58743C3.0155 2.58751 2.97028 2.60565 2.93637 2.63803C2.90246 2.67042 2.8825 2.71454 2.88065 2.76119C2.87281 3.08151 2.87788 3.40344 2.87788 3.72514ZM10.4305 15.9851C10.6696 15.9851 10.8545 15.9837 11.0401 15.9851C11.4347 15.988 11.8287 15.9933 12.2223 15.9951C12.3953 15.9951 12.4681 15.9163 12.4439 15.7338C12.384 15.279 12.3102 14.8261 12.253 14.3713C12.1728 13.7342 12.0983 13.0963 12.0296 12.4576C11.9834 12.0232 11.9279 11.5904 11.9143 11.1557C11.8995 10.6738 11.6998 10.2124 11.7688 9.72193C11.7703 9.69886 11.7669 9.67573 11.7587 9.65408C11.7506 9.63243 11.7378 9.61275 11.7214 9.59637C11.7049 9.57999 11.6851 9.56728 11.6633 9.55908C11.6415 9.55089 11.6182 9.54739 11.5949 9.54884C11.3637 9.53262 11.1316 9.53101 10.9002 9.54404C9.95477 9.62521 9.00937 9.71804 8.06559 9.80721C8.01924 9.80511 7.97311 9.81454 7.93138 9.83464C7.86221 9.88654 7.75983 9.94897 7.75291 10.0164C7.73169 10.2359 7.62009 10.4623 7.76329 10.6795C7.93853 10.6337 8.11239 10.5816 8.28971 10.5423C8.42398 10.5085 8.56167 10.4899 8.70015 10.4867C8.81458 10.4938 8.92704 10.5196 9.03289 10.5633C9.09956 10.5849 9.15793 10.6262 9.20012 10.6818C9.24231 10.7373 9.26628 10.8043 9.26877 10.8738C9.28254 10.954 9.26912 11.0364 9.23061 11.1083C9.19211 11.1801 9.13068 11.2372 9.05594 11.2707C8.90704 11.3327 8.75394 11.3843 8.59777 11.4251C8.2655 11.5222 7.93231 11.613 7.60026 11.7106C7.55965 11.7303 7.5222 11.7558 7.48912 11.7863C7.55062 11.8074 7.61501 11.8189 7.68005 11.8206C7.77044 11.8099 7.85736 11.7539 7.9466 11.752C8.20015 11.736 8.45459 11.7399 8.70753 11.7635C8.822 11.7876 8.92486 11.8494 8.99941 11.9389C9.07396 12.0283 9.11583 12.1402 9.11821 12.2562C9.12169 12.3718 9.08695 12.4854 9.01931 12.5796C8.95167 12.6738 8.85482 12.7436 8.74351 12.7782C8.67733 12.7989 8.6093 12.8134 8.54036 12.8214C8.17888 12.9021 7.80982 12.9447 7.43932 12.9485C7.3711 12.9317 7.29909 12.9391 7.23586 12.9696C7.17264 13.0001 7.12223 13.0516 7.09344 13.1152C7.04917 13.2199 7.1444 13.2585 7.40681 13.2419C7.54516 13.2329 7.68351 13.219 7.82301 13.2142C8.00996 13.2124 8.19263 13.2697 8.34459 13.3777C8.40835 13.4176 8.46207 13.4715 8.50166 13.5351C8.54125 13.5988 8.56567 13.6705 8.57305 13.7449C8.58043 13.8194 8.57059 13.8945 8.54426 13.9645C8.51794 14.0346 8.47583 14.0978 8.42115 14.1493C8.23622 14.3261 7.99921 14.4398 7.74461 14.4738C7.446 14.5124 7.1497 14.5593 6.8534 14.6109C6.78793 14.6285 6.72595 14.657 6.67008 14.6951C6.6574 14.7022 6.6544 14.7376 6.65786 14.758C6.66132 14.7783 6.68092 14.8094 6.69176 14.8094C6.77938 14.8094 6.86677 14.7941 6.9537 14.7975C7.11294 14.791 7.27236 14.8049 7.42801 14.8389C7.5069 14.8622 7.57661 14.909 7.62762 14.9731C7.67863 15.0371 7.70846 15.1152 7.71302 15.1967C7.72189 15.2776 7.70511 15.3592 7.66502 15.4302C7.62494 15.5012 7.56353 15.558 7.48935 15.5927C7.36822 15.658 7.23565 15.6998 7.09874 15.716C6.91589 15.7352 6.7298 15.713 6.54349 15.716C6.47494 15.7105 6.40637 15.7264 6.34749 15.7617C6.28464 15.8247 6.23599 15.9002 6.20476 15.9832C6.17294 16.0592 6.25572 16.125 6.38577 16.1266C6.68761 16.1305 6.98944 16.141 7.28966 16.1282C8.3552 16.0859 9.41865 16.0326 10.4305 15.9851ZM10.7187 17.6697C10.7187 17.6763 10.7187 17.6825 10.7198 17.6889C10.9043 17.6889 11.0906 17.6919 11.2758 17.6889C12.0153 17.6848 12.7522 17.6 13.473 17.436C13.5019 17.4294 13.5192 17.369 13.5351 17.3309C13.5383 17.3233 13.5099 17.2936 13.4919 17.2892C13.0506 17.1774 12.6231 17.0213 12.1476 17.0579C11.7087 17.0765 11.269 17.058 10.8333 17.0025C10.2342 16.9422 9.63056 16.9412 9.03127 16.9996C8.57195 17.0476 8.11077 17.0743 7.65145 17.1221C7.46872 17.1325 7.28758 17.1618 7.11096 17.2094C6.93644 17.2752 6.744 17.2771 6.56816 17.2149C6.25802 17.1198 5.93281 17.0824 5.60893 17.1045C5.12471 17.0999 4.63794 17.0974 4.15301 17.0926C4.04856 17.0915 3.96694 17.1354 3.95356 17.2348C3.93729 17.322 3.94941 17.412 3.98815 17.4918C4.0391 17.5675 4.11687 17.6214 4.20605 17.6429C4.49951 17.7074 4.79796 17.7472 5.09818 17.7616C6.25526 17.7734 7.41242 17.772 8.56965 17.7575C9.28723 17.7468 10.0025 17.7001 10.7187 17.6697ZM11.0357 8.75615C11.0357 8.76758 11.0378 8.77901 11.0387 8.7909C11.4563 8.7909 11.8742 8.79273 12.2913 8.78975C12.402 8.78975 12.4453 8.7031 12.3957 8.5961C12.3575 8.51287 12.3183 8.42919 12.2758 8.34779C12.2465 8.28458 12.1988 8.23147 12.1389 8.19526C12.079 8.15906 12.0095 8.1414 11.9394 8.14454C11.2217 8.12147 10.5032 8.14714 9.78898 8.22136C9.10476 8.3481 8.40974 8.40859 7.71371 8.40198C7.41267 8.38214 7.1107 8.42289 6.82596 8.52179C6.71144 8.5771 6.58654 8.60811 6.45925 8.61283C6.33196 8.61755 6.20507 8.59589 6.0867 8.54922C6.0203 8.5179 5.90915 8.55906 5.82591 8.58764C5.75097 8.61348 5.79663 8.73878 5.905 8.87687C5.96436 8.94689 6.03955 9.00202 6.12446 9.03778C6.20936 9.07353 6.30158 9.0889 6.39361 9.08264C7.34402 9.08678 8.29377 9.03257 9.23742 8.92032C9.83763 8.87207 10.4362 8.81011 11.0357 8.75615ZM3.80691 21.2948C3.79423 21.2516 3.78131 21.2084 3.76863 21.1652C3.73629 21.1953 3.70674 21.2283 3.68032 21.2637C3.65393 21.3014 3.63723 21.3448 3.63167 21.3904C3.63167 21.4226 3.66556 21.4818 3.68493 21.4818C3.70517 21.4806 3.72489 21.4749 3.74264 21.4652C3.7604 21.4555 3.77574 21.4419 3.78754 21.4256C3.8023 21.3833 3.80887 21.3386 3.80691 21.2939V21.2948ZM4.90265 21.4153C4.89135 21.3764 4.87959 21.3375 4.8676 21.2987C4.84431 21.3276 4.82671 21.3605 4.81572 21.3959C4.81342 21.4171 4.8503 21.4416 4.86967 21.4658C4.88051 21.4491 4.89181 21.4311 4.90265 21.4153Z" stroke="white" stroke-opacity="0.3" stroke-width="0.6" mask="url(#path-1-outside-1_48_6823)"/>
</svg>
