<svg width="32" height="23" viewBox="0 0 32 23" fill="none" xmlns="http://www.w3.org/2000/svg">
<g id="walletconnect-seeklogo 1">
<g id="Group">
<g id="Vector" filter="url(#filter0_d_1114_13095)">
<path fill-rule="evenodd" clip-rule="evenodd" d="M16.0003 1.97266C21.4916 1.97266 25.9421 6.2377 25.9421 11.5002C25.9421 16.7626 21.4916 21.0277 16.0003 21.0277C10.5091 21.0277 6.05859 16.7626 6.05859 11.5002C6.05859 6.2377 10.5091 1.97266 16.0003 1.97266Z" fill="url(#paint0_radial_1114_13095)"/>
</g>
<path id="Vector_2" d="M12.3778 9.32979C14.3778 7.45778 17.6244 7.45778 19.6244 9.32979L19.8652 9.55681C19.9662 9.64985 19.9662 9.80244 19.8652 9.89548L19.0419 10.6659C18.9914 10.7143 18.9099 10.7143 18.8594 10.6659L18.5293 10.357C17.1312 9.05066 14.871 9.05066 13.473 10.357L13.1196 10.6882C13.0691 10.7366 12.9876 10.7366 12.9371 10.6882L12.1138 9.91781C12.0128 9.82477 12.0128 9.67218 12.1138 9.57914L12.3778 9.32979ZM21.3293 10.9227L22.0633 11.6075C22.1643 11.7005 22.1643 11.8531 22.0633 11.9461L18.7584 15.0388C18.6575 15.1319 18.4943 15.1319 18.3973 15.0388L16.0516 12.8431C16.0283 12.8207 15.9856 12.8207 15.9623 12.8431L13.6167 15.0388C13.5157 15.1319 13.3526 15.1319 13.2555 15.0388L9.93901 11.9461C9.83804 11.8531 9.83804 11.7005 9.93901 11.6075L10.673 10.9227C10.774 10.8296 10.9371 10.8296 11.0342 10.9227L13.3798 13.1185C13.4031 13.1408 13.4458 13.1408 13.4691 13.1185L15.8147 10.9227C15.9157 10.8296 16.0788 10.8296 16.1759 10.9227L18.5215 13.1185C18.5448 13.1408 18.5876 13.1408 18.6109 13.1185L20.9565 10.9227C21.0652 10.8296 21.2283 10.8296 21.3293 10.9227Z" fill="white"/>
</g>
</g>
<defs>
<filter id="filter0_d_1114_13095" x="6.05859" y="1.97266" width="19.8828" height="20.0547" filterUnits="userSpaceOnUse" color-interpolation-filters="sRGB">
<feFlood flood-opacity="0" result="BackgroundImageFix"/>
<feColorMatrix in="SourceAlpha" type="matrix" values="0 0 0 0 0 0 0 0 0 0 0 0 0 0 0 0 0 0 127 0" result="hardAlpha"/>
<feOffset dy="1"/>
<feComposite in2="hardAlpha" operator="out"/>
<feColorMatrix type="matrix" values="0 0 0 0 0 0 0 0 0 0 0 0 0 0 0 0 0 0 0.2 0"/>
<feBlend mode="normal" in2="BackgroundImageFix" result="effect1_dropShadow_1114_13095"/>
<feBlend mode="normal" in="SourceGraphic" in2="effect1_dropShadow_1114_13095" result="shape"/>
</filter>
<radialGradient id="paint0_radial_1114_13095" cx="0" cy="0" r="1" gradientUnits="userSpaceOnUse" gradientTransform="translate(6.05866 11.5005) scale(19.8835 19.055)">
<stop stop-color="#5D9DF6"/>
<stop offset="1" stop-color="#006FFF"/>
</radialGradient>
</defs>
</svg>
