<svg width="32" height="23" viewBox="0 0 32 23" fill="none" xmlns="http://www.w3.org/2000/svg">
<g id="walletconnect-seeklogo 1">
<g id="Group">
<g id="Vector" filter="url(#filter0_d_1114_13095)">
<path fill-rule="evenodd" clip-rule="evenodd" d="M16.0003 1.97266C21.4916 1.97266 25.9421 6.2377 25.9421 11.5002C25.9421 16.7626 21.4916 21.0277 16.0003 21.0277C10.5091 21.0277 6.05859 16.7626 6.05859 11.5002C6.05859 6.2377 10.5091 1.97266 16.0003 1.97266Z" fill="url(#paint0_radial_1114_13095)"/>
</g>
<path id="Vector_2" d="M12.3778 9.32979C14.3778 7.45778 17.6244 7.45778 19.6244 9.32979L19.8652 9.55681C19.9662 9.64985 19.9662 9.80244 19.8652 9.89548L19.0419 10.6659C18.9914 10.7143 18.9099 10.7143 18.8594 10.6659L18.5293 10.357C17.1312 9.05066 14.871 9.05066 13.473 10.357L13.1196 10.6882C13.0691 10.7366 12.9876 10.7366 12.9371 10.6882L12.1138 9.91781C12.0128 9.82477 12.0128 9.67218 12.1138 9.57914L12.3778 9.32979ZM21.3293 10.9227L22.0633 11.6075C22.1643 11.7005 22.1643 11.8531 22.0633 11.9461L18.7584 15.0388C18.6575 15.1319 18.4943 15.1319 18.3973 15.0388L16.0516 12.8431C16.0283 12.8207 15.9856 12.8207 15.9623 12.8431L13.6167 15.0388C13.5157 15.1319 13.3526 15.1319 13.2555 15.0388L9.93901 11.9461C9.83804 11.8531 9.83804 11.7005 9.93901 11.6075L10.673 10.9227C10.774 10.8296 10.9371 10.8296 11.0342 10.9227L13.3798 13.1185C13.4031 13.1408 13.4458 13.1408 13.4691 13.1185L15.8147 10.9227C15.9157 10.8296 16.0788 10.8296 16.1759 10.9227L18.5215 13.1185C18.5448 13.1408 18.5876 13.1408 18.6109 13.1185L20.9565 10.9227C21.0652 10.8296 21.2283 10.8296 21.3293 10.9227Z" fill="white"/>
</g>
</g>
<defs>
<filter id="filter0_d_1114_13095" x="6.05859" y="1.97266" width="19.8828" height="20.0547" filterUnits="userSpaceOnUse" color-interpolation-filters="sRGB">
<feFlood flood-opacity="0" result="BackgroundImageFix"/>
<feColorMatrix in="SourceAlpha" type="matrix" values="0 0 0 0 0 0 0 0 0 0 0 0 0 0 0 0 0 0 127 0" result="hardAlpha"/>
<feOffset dy="1"/>
<feComposite in2="hardAlpha" operator="out"/>
<feColorMatrix type="matrix" values="0 0 0 0 0 0 0 0 0 0 0 0 0 0 0 0 0 0 0.2 0"/>
<feBlend mode="normal" in2="BackgroundImageFix" result="effect1_dropShadow_1114_13095"/>
<feBlend mode="normal" in="SourceGraphic" in2="effect1_dropShadow_1114_13095" result="shape"/>
</filter>
<radialGradient id="paint0_radial_1114_13095" cx="0" cy="0" r="1" gradientUnits="userSpaceOnUse" gradientTransform="translate(6.05866 11.5005) scale(19.8835 19.055)">
<stop stop-color="#5D9DF6"/>
<stop offset="1" stop-color="#006FFF"/>
</radialGradient>
</defs>
</svg>

<svg width="21" height="20" viewBox="0 0 21 20" fill="none" xmlns="http://www.w3.org/2000/svg">
<path d="M19.672 17.5601L15.5419 16.3504L12.4274 18.1818L10.2543 18.1809L7.13788 16.3504L3.00969 17.5601L1.75391 13.3902L3.00969 8.76223L1.75391 4.84947L3.00969 0L9.4603 3.79094H13.2213L19.672 0L20.9278 4.84947L19.672 8.76223L20.9278 13.3902L19.672 17.5601Z" fill="#FF5C16"/>
<path d="M2.66602 0L9.38247 3.79668L9.11541 6.40233L2.66602 0ZM6.96439 13.4028L9.91955 15.5313L6.96439 16.3636V13.4028ZM9.68339 9.88381L9.11541 6.40406L5.47982 8.7704L5.47785 8.76947V8.7712L5.48913 11.2069L6.9634 9.88394L9.68339 9.88381ZM20.0138 0L13.2974 3.79668L13.5636 6.40233L20.0138 0ZM15.7156 13.4028L12.7603 15.5313L15.7156 16.3636V13.4028ZM17.201 8.77107V8.76933L17.2002 8.77027L13.5646 6.40406L12.9966 9.88381H15.7155L17.1907 11.2066L17.201 8.77107Z" fill="#FF5C16"/>
<g filter="url(#filter0_d_1114_13085)">
<path d="M7.13788 16.128L3.00969 17.2727L1.75391 13.3283H7.13788V16.128ZM9.74932 10L10.5379 14.7568L9.44499 12.1119L5.72018 11.2517L7.13693 10.0001H9.74932V10ZM15.5437 16.128L19.672 17.2727L20.9278 13.3283H15.5437V16.128ZM12.9324 10L12.1438 14.7568L13.2366 12.1119L16.9616 11.2517L15.5438 10.0001H12.9324V10Z" fill="#E34807"/>
</g>
<path d="M1.75391 13.3122L3.00969 8.64748H5.71015L5.72004 11.1013L9.44512 12.0175L10.5379 14.8345L9.97614 15.4549L7.13788 13.3112H1.75391V13.3122ZM20.9278 13.3122L19.672 8.64748H16.9714L16.9616 11.1013L13.2367 12.0175L12.1438 14.8345L12.7055 15.4549L15.5438 13.3112H20.9278V13.3122ZM13.2213 3.63672H9.4603L9.20489 6.26092L10.538 14.8318H12.1438L13.4778 6.26092L13.2213 3.63672Z" fill="#FF8D5D"/>
<path d="M3.00969 0L1.75391 4.8027L3.00969 8.67773H5.71015L9.2038 6.33545L3.00969 0ZM8.96885 10.7795H7.74545L7.07935 11.4156L9.44594 11.9872L8.96885 10.7787V10.7795ZM19.672 0L20.9278 4.8027L19.672 8.67773H16.9714L13.4779 6.33545L19.672 0ZM13.7146 10.7795H14.9398L15.6059 11.4164L13.2366 11.989L13.7146 10.7786V10.7795ZM12.4265 16.3636L12.7056 15.3681L12.1438 14.7586H10.5368L9.97519 15.3681L10.2542 16.3636" fill="#661800"/>
<g filter="url(#filter1_d_1114_13085)">
<path d="M12.7098 16.3633V18.1815H9.9707V16.3633H12.7098Z" fill="#C0C4CD"/>
</g>
<g filter="url(#filter2_d_1114_13085)">
<path d="M7.23242 16.3043L10.2801 18.1804V16.4818L10.0072 15.4531L7.23242 16.3043ZM15.4498 16.3043L12.402 18.1804V16.4818L12.6749 15.4531L15.4498 16.3043Z" fill="#E7EBF6"/>
</g>
<defs>
<filter id="filter0_d_1114_13085" x="1.75391" y="10" width="19.1738" height="8.27344" filterUnits="userSpaceOnUse" color-interpolation-filters="sRGB">
<feFlood flood-opacity="0" result="BackgroundImageFix"/>
<feColorMatrix in="SourceAlpha" type="matrix" values="0 0 0 0 0 0 0 0 0 0 0 0 0 0 0 0 0 0 127 0" result="hardAlpha"/>
<feOffset dy="1"/>
<feComposite in2="hardAlpha" operator="out"/>
<feColorMatrix type="matrix" values="0 0 0 0 0 0 0 0 0 0 0 0 0 0 0 0 0 0 0.2 0"/>
<feBlend mode="normal" in2="BackgroundImageFix" result="effect1_dropShadow_1114_13085"/>
<feBlend mode="normal" in="SourceGraphic" in2="effect1_dropShadow_1114_13085" result="shape"/>
</filter>
<filter id="filter1_d_1114_13085" x="9.9707" y="16.3633" width="2.73828" height="2.81641" filterUnits="userSpaceOnUse" color-interpolation-filters="sRGB">
<feFlood flood-opacity="0" result="BackgroundImageFix"/>
<feColorMatrix in="SourceAlpha" type="matrix" values="0 0 0 0 0 0 0 0 0 0 0 0 0 0 0 0 0 0 127 0" result="hardAlpha"/>
<feOffset dy="1"/>
<feComposite in2="hardAlpha" operator="out"/>
<feColorMatrix type="matrix" values="0 0 0 0 0 0 0 0 0 0 0 0 0 0 0 0 0 0 0.2 0"/>
<feBlend mode="normal" in2="BackgroundImageFix" result="effect1_dropShadow_1114_13085"/>
<feBlend mode="normal" in="SourceGraphic" in2="effect1_dropShadow_1114_13085" result="shape"/>
</filter>
<filter id="filter2_d_1114_13085" x="7.23242" y="15.4531" width="8.2168" height="3.72656" filterUnits="userSpaceOnUse" color-interpolation-filters="sRGB">
<feFlood flood-opacity="0" result="BackgroundImageFix"/>
<feColorMatrix in="SourceAlpha" type="matrix" values="0 0 0 0 0 0 0 0 0 0 0 0 0 0 0 0 0 0 127 0" result="hardAlpha"/>
<feOffset dy="1"/>
<feComposite in2="hardAlpha" operator="out"/>
<feColorMatrix type="matrix" values="0 0 0 0 0 0 0 0 0 0 0 0 0 0 0 0 0 0 0.2 0"/>
<feBlend mode="normal" in2="BackgroundImageFix" result="effect1_dropShadow_1114_13085"/>
<feBlend mode="normal" in="SourceGraphic" in2="effect1_dropShadow_1114_13085" result="shape"/>
</filter>
</defs>
</svg>
