<svg width="310" height="94" viewBox="0 0 310 94" fill="none" xmlns="http://www.w3.org/2000/svg">
<path d="M280.686 85.2921L281.349 83.5412L280.135 82.9462C278.638 82.1461 277.901 80.8048 277.304 79.2853C277.255 79.1397 277.182 78.7808 277.214 78.6906C279.059 76.2204 280.193 75.5605 280.982 75.8477C281.681 76.1022 282.146 77.1399 282.697 78.3621C282.804 78.6308 283.009 79.1906 283.144 79.2398C283.392 79.3301 283.782 78.6803 283.897 78.3645C284.332 77.1692 283.307 76.3364 282.616 75.4976C281.536 74.185 280.887 72.6716 281.502 70.9801C281.691 70.4614 281.993 69.9837 282.399 69.5697C283.843 68.1286 285.538 67.7498 287.15 67.9533L287.948 65.9707C288.168 65.4376 289.156 65.6696 289.427 65.7681C289.652 65.8502 291.128 66.2854 290.972 66.7139L290.578 67.7964L290.109 68.8768C291.045 69.32 291.88 69.9046 292.534 70.4236C293.046 70.84 293.954 71.7835 294.055 71.9988L294.038 72.0439C291.038 74.8849 290.869 75.7686 290.08 75.4813C289.448 75.2515 289.133 74.0129 288.028 73.6107C287.509 73.4219 287.124 73.3583 286.927 73.8995C286.566 74.8918 290.943 76.9702 289.621 80.6012C288.858 82.6986 286.79 84.4491 284.301 84.4114C284.063 85.0655 283.825 85.7195 283.618 86.3592C283.253 86.9414 281.807 86.211 281.424 86.0715L280.928 85.8909C280.801 85.8191 280.612 85.495 280.686 85.2921Z" fill="#9DBA26"/>
<path d="M21.4599 83.0357L21.0739 81.9311L20.2537 82.1338C19.2157 82.352 18.3237 82.0063 17.4278 81.5183C17.3457 81.4683 17.1663 81.3261 17.1457 81.2697C17.0362 79.3462 17.3141 78.5746 17.8074 78.395C18.2444 78.236 18.884 78.5459 19.6389 78.9097C19.7979 78.9955 20.1209 79.1812 20.2054 79.1504C20.3605 79.094 20.286 78.6263 20.2142 78.4289C19.9423 77.6819 19.117 77.6949 18.4493 77.5708C17.4047 77.3763 16.4857 76.9127 16.101 75.8555C15.983 75.5314 15.9354 75.1815 15.9635 74.8201C16.0759 73.5501 16.7357 72.6874 17.589 72.1374L17.1747 70.8675C17.0657 70.5241 17.632 70.2381 17.8012 70.1766C17.9421 70.1253 18.8237 69.7405 18.9212 70.0083L19.1674 70.6849L19.3765 71.391C20.0032 71.2268 20.6375 71.1715 21.1591 71.1572C21.5717 71.1507 22.3855 71.2376 22.5201 71.3003L22.5304 71.3285C22.2351 73.8943 22.5095 74.385 22.0162 74.5646C21.6215 74.7082 20.9729 74.2419 20.2822 74.4933C19.958 74.6113 19.7479 74.7357 19.871 75.074C20.0967 75.6942 23.0274 74.9308 23.8534 77.2001C24.3305 78.511 24.0439 80.1797 22.837 81.1617C22.9858 81.5704 23.1346 81.9792 23.2923 82.3687C23.3514 82.7942 22.366 83.0252 22.1263 83.1124L21.8162 83.2252C21.7265 83.2419 21.5061 83.1625 21.4599 83.0357Z" fill="white"/>
<path d="M14.666 42.1094L14.0483 40.342L12.7361 40.6664C11.0754 41.0155 9.64807 40.4623 8.21457 39.6815C8.08331 39.6016 7.79618 39.374 7.76335 39.2838C7.58814 36.2061 8.03273 34.9716 8.82207 34.6843C9.5212 34.4299 10.5445 34.9258 11.7524 35.5078C12.0067 35.6451 12.5235 35.9422 12.6588 35.893C12.9069 35.8027 12.7878 35.0543 12.6728 34.7386C12.2378 33.5433 10.9173 33.5642 9.84896 33.3656C8.17774 33.0544 6.70734 32.3126 6.0917 30.6211C5.9029 30.1024 5.82687 29.5427 5.87181 28.9644C6.05165 26.9324 7.10722 25.5521 8.47257 24.6721L7.80966 22.6402C7.63521 22.0908 8.54138 21.6333 8.81201 21.5347C9.03754 21.4527 10.4481 20.8371 10.604 21.2656L10.998 22.3481L11.3326 23.4778C12.3352 23.2151 13.3501 23.1266 14.1847 23.1038C14.8449 23.0934 16.147 23.2324 16.3623 23.3328L16.3787 23.3779C15.9063 27.4831 16.3453 28.2683 15.556 28.5556C14.9245 28.7854 13.8868 28.0393 12.7817 28.4416C12.263 28.6304 11.9268 28.8294 12.1238 29.3706C12.485 30.3629 17.174 29.1415 18.4956 32.7725C19.259 34.8699 18.8004 37.5397 16.8694 39.1109C17.1074 39.765 17.3455 40.419 17.5979 41.0423C17.6924 41.723 16.1157 42.0925 15.7323 42.2321L15.2361 42.4127C15.0926 42.4394 14.7399 42.3123 14.666 42.1094Z" fill="white"/>
<path d="M46.4599 19.0748L46.0739 17.9702L45.2537 18.1729C44.2157 18.3911 43.3237 18.0453 42.4278 17.5573C42.3457 17.5074 42.1663 17.3652 42.1457 17.3088C42.0362 15.3852 42.3141 14.6137 42.8074 14.4341C43.2444 14.2751 43.884 14.585 44.6389 14.9487C44.7979 15.0346 45.1209 15.2203 45.2054 15.1895C45.3605 15.1331 45.286 14.6653 45.2142 14.468C44.9423 13.7209 44.117 13.734 43.4493 13.6099C42.4047 13.4154 41.4857 12.9518 41.101 11.8946C40.983 11.5704 40.9354 11.2206 40.9635 10.8592C41.0759 9.58913 41.7357 8.72646 42.589 8.17643L42.1747 6.90655C42.0657 6.56313 42.632 6.27718 42.8012 6.21562C42.9421 6.16431 43.8237 5.77959 43.9212 6.0474L44.1674 6.72398L44.3765 7.43005C45.0032 7.26582 45.6375 7.21053 46.1591 7.19628C46.5717 7.18975 47.3855 7.27665 47.5201 7.3394L47.5304 7.3676C47.2351 9.93332 47.5095 10.4241 47.0162 10.6036C46.6215 10.7473 45.9729 10.281 45.2822 10.5324C44.958 10.6504 44.7479 10.7747 44.871 11.113C45.0967 11.7332 48.0274 10.9698 48.8534 13.2392C49.3305 14.5501 49.0439 16.2187 47.837 17.2007C47.9858 17.6095 48.1346 18.0183 48.2923 18.4078C48.3514 18.8333 47.366 19.0642 47.1263 19.1514L46.8162 19.2643C46.7265 19.281 46.5061 19.2016 46.4599 19.0748Z" fill="#E9EB13"/>
<path d="M43.45 62.9377L42.6779 60.7286L41.0376 61.134C38.9617 61.5704 37.1775 60.8789 35.3857 59.9029C35.2216 59.8029 34.8627 59.5185 34.8216 59.4058C34.6026 55.5587 35.1584 54.0155 36.145 53.6564C37.019 53.3383 38.2981 53.9582 39.808 54.6857C40.1259 54.8573 40.7719 55.2288 40.941 55.1672C41.2511 55.0543 41.1022 54.1189 40.9585 53.7242C40.4147 52.2301 38.7641 52.2562 37.4287 52.008C35.3396 51.619 33.5016 50.6917 32.7321 48.5774C32.4961 47.929 32.401 47.2293 32.4572 46.5065C32.682 43.9665 34.0015 42.2411 35.7082 41.1411L34.8795 38.6013C34.6615 37.9145 35.7942 37.3426 36.1325 37.2194C36.4144 37.1168 38.1775 36.3474 38.3725 36.883L38.865 38.2362L39.2832 39.6483C40.5365 39.3198 41.8051 39.2093 42.8483 39.1808C43.6736 39.1677 45.3012 39.3415 45.5704 39.467L45.5909 39.5234C45.0004 44.6548 45.5491 45.6363 44.5625 45.9955C43.7731 46.2828 42.4759 45.3502 41.0946 45.853C40.4462 46.0889 40.0259 46.3377 40.2722 47.0143C40.7237 48.2547 46.5849 46.7279 48.2369 51.2666C49.1912 53.8883 48.618 57.2256 46.2042 59.1897C46.5018 60.0072 46.7993 60.8247 47.1148 61.6038C47.233 62.4547 45.2621 62.9167 44.7828 63.0911L44.1626 63.3168C43.9832 63.3502 43.5423 63.1914 43.45 62.9377Z" fill="#9DBA26"/>
<path d="M273.686 26.2921L274.349 24.5412L273.135 23.9462C271.638 23.1461 270.901 21.8048 270.304 20.2853C270.255 20.1397 270.182 19.7808 270.214 19.6906C272.059 17.2204 273.193 16.5605 273.982 16.8477C274.681 17.1022 275.146 18.1399 275.697 19.3621C275.804 19.6308 276.009 20.1906 276.144 20.2398C276.392 20.3301 276.782 19.6803 276.897 19.3645C277.332 18.1692 276.307 17.3364 275.616 16.4976C274.536 15.185 273.887 13.6716 274.502 11.9801C274.691 11.4614 274.993 10.9837 275.399 10.5697C276.843 9.12862 278.538 8.74978 280.15 8.95325L280.948 6.97069C281.168 6.43764 282.156 6.66963 282.427 6.76813C282.652 6.85022 284.128 7.28535 283.972 7.71385L283.578 8.79638L283.109 9.87683C284.045 10.32 284.88 10.9046 285.534 11.4236C286.046 11.84 286.954 12.7835 287.055 12.9988L287.038 13.0439C284.038 15.8849 283.869 16.7686 283.08 16.4813C282.448 16.2515 282.133 15.0129 281.028 14.6107C280.509 14.4219 280.124 14.3583 279.927 14.8995C279.566 15.8918 283.943 17.9702 282.621 21.6012C281.858 23.6986 279.79 25.4491 277.301 25.4114C277.063 26.0655 276.825 26.7195 276.618 27.3592C276.253 27.9414 274.807 27.211 274.424 27.0715L273.928 26.8909C273.801 26.8191 273.612 26.495 273.686 26.2921Z" fill="#9DBA26"/>
<path d="M296.063 52.4675L296.565 51.1633L295.655 50.7103C294.769 50.2319 294.061 49.3164 293.53 47.9636C293.455 47.7428 293.431 47.5939 293.459 47.5168C294.698 45.8602 295.642 45.1501 296.292 45.3866C296.463 45.4487 296.626 45.5829 296.782 45.7892C296.943 45.9975 297.066 46.1983 297.152 46.3915C297.245 46.5813 297.387 46.8762 297.578 47.2762C297.745 47.6923 297.855 47.9103 297.91 47.9304C297.987 47.9584 298.086 47.8944 298.205 47.7382C298.332 47.5786 298.422 47.4244 298.476 47.2757C298.538 47.105 298.564 46.9399 298.554 46.7802C298.551 46.617 298.5 46.4553 298.403 46.295C298.313 46.1313 298.235 46.0031 298.169 45.9105C298.108 45.8199 297.993 45.6814 297.824 45.4952C297.662 45.3054 297.557 45.183 297.509 45.1279C296.554 43.9637 296.277 42.8338 296.675 41.7381C296.82 41.3416 297.044 40.99 297.349 40.6832C298.331 39.6999 299.52 39.294 300.916 39.4656L301.513 37.9805C301.59 37.8028 301.749 37.7172 301.99 37.7238C302.231 37.7304 302.442 37.7668 302.624 37.8329C303.461 38.1375 303.846 38.3714 303.781 38.5346L303.483 39.3522L303.133 40.1601C303.724 40.4376 304.332 40.824 304.956 41.3193C305.142 41.4745 305.369 41.6911 305.636 41.969C305.903 42.2469 306.056 42.4244 306.097 42.5015L306.085 42.5345C305.695 42.9039 305.325 43.2682 304.976 43.6275C304.627 43.9869 304.373 44.2561 304.214 44.4353C304.061 44.6164 303.913 44.7746 303.771 44.9097C303.63 45.0393 303.511 45.1176 303.414 45.1446C303.324 45.1681 303.222 45.1588 303.106 45.1168C302.979 45.0707 302.768 44.8536 302.473 44.4655C302.18 44.072 301.879 43.8191 301.571 43.7069C301.345 43.6247 301.166 43.5939 301.034 43.6143C300.909 43.6313 300.812 43.7362 300.742 43.9289C300.692 44.0665 300.756 44.249 300.935 44.4764C301.116 44.6982 301.341 44.9545 301.609 45.2455C301.885 45.5329 302.149 45.8534 302.401 46.2069C302.658 46.5624 302.829 46.9832 302.914 47.4693C303.001 47.9499 302.952 48.4435 302.768 48.95C302.467 49.7759 301.952 50.4616 301.224 51.007C300.495 51.5525 299.681 51.8203 298.78 51.8105C298.542 52.4657 298.371 52.9523 298.268 53.2701C298.214 53.3502 298.133 53.4017 298.024 53.4247C297.92 53.4552 297.793 53.4527 297.644 53.4171C297.5 53.3835 297.37 53.3457 297.255 53.3036C297.145 53.2635 297.016 53.2137 296.87 53.1541C296.723 53.0944 296.639 53.0606 296.617 53.0526L296.245 52.9173C296.194 52.8863 296.144 52.8182 296.095 52.7131C296.049 52.6154 296.039 52.5336 296.063 52.4675Z" fill="#E9EB13"/>
<path d="M261.811 71.9078L262.639 69.7192L261.122 68.9755C259.251 67.9753 258.329 66.2988 257.584 64.3994C257.522 64.2174 257.43 63.7688 257.471 63.656C259.776 60.5682 261.194 59.7433 262.181 60.1024C263.055 60.4205 263.636 61.7176 264.325 63.2454C264.458 63.5812 264.714 64.281 264.883 64.3426C265.193 64.4554 265.681 63.6431 265.824 63.2484C266.368 61.7543 265.087 60.7133 264.223 59.6648C262.873 58.024 262.061 56.1322 262.831 54.0179C263.067 53.3695 263.444 52.7724 263.951 52.2548C265.756 50.4535 267.876 49.98 269.891 50.2343L270.888 47.7561C271.163 47.0898 272.398 47.3798 272.736 47.5029C273.018 47.6055 274.864 48.1494 274.669 48.6851L274.176 50.0382L273.589 51.3888C274.76 51.9428 275.803 52.6735 276.62 53.3222C277.261 53.8427 278.396 55.0221 278.522 55.2912L278.501 55.3476C274.75 58.8989 274.54 60.0036 273.553 59.6444C272.764 59.3571 272.369 57.8089 270.988 57.3062C270.34 57.0702 269.858 56.9906 269.612 57.6671C269.16 58.9075 274.632 61.5055 272.98 66.0443C272.025 68.666 269.441 70.8541 266.33 70.8071C266.032 71.6246 265.734 72.4421 265.475 73.2417C265.019 73.9695 263.212 73.0565 262.733 72.8821L262.113 72.6564C261.954 72.5666 261.718 72.1616 261.811 71.9078Z" fill="white"/>
</svg>
