<svg width="20" height="20" viewBox="0 0 20 20" fill="none" xmlns="http://www.w3.org/2000/svg">
<path d="M10 0C4.47534 0 0 4.47534 0 10C0 15.5247 4.47534 20 10 20C15.5247 20 20 15.5247 20 10C20 4.47534 15.5247 0 10 0ZM13.7937 7.02242C13.7758 7.15695 13.7489 7.30045 13.7309 7.46188L11.4888 7.95516C11.5067 7.8296 11.5247 7.74888 11.5336 7.71301C11.5426 7.67713 11.5516 7.64126 11.5516 7.61435C11.5516 7.29148 11.4888 7.06727 11.3722 6.93274C11.2556 6.79821 11.1121 6.73543 10.9417 6.73543C10.8341 6.73543 10.7354 6.76233 10.6188 6.80718C10.5112 6.85202 10.4036 6.9148 10.3049 6.98655C10.2063 7.0583 10.1256 7.15695 10.0717 7.26457C10.0179 7.38117 9.98206 7.49776 9.98206 7.62332C9.98206 7.79372 10.0538 7.94619 10.1883 8.09865C10.3318 8.25112 10.5022 8.40359 10.7085 8.55605C10.9148 8.70852 11.139 8.87892 11.3901 9.06726C11.6323 9.25561 11.8565 9.47085 12.0628 9.72197C12.2691 9.97309 12.4395 10.2601 12.583 10.5919C12.7265 10.9238 12.7892 11.3094 12.7892 11.7578C12.7892 12.2063 12.7175 12.583 12.583 12.9507C12.4484 13.3184 12.2601 13.6502 12.0179 13.9552C11.7758 14.2601 11.4888 14.5112 11.1659 14.7354C10.843 14.9507 10.4933 15.1211 10.1076 15.2466C10.0628 15.5336 10.0359 15.8296 10.009 16.1166C9.98206 16.4036 9.97309 16.6099 9.97309 16.7265L8.02691 16.8969C8.05381 16.7444 8.08969 16.574 8.11659 16.3946C8.1435 16.2511 8.18834 16.0897 8.22422 15.9283C8.26906 15.7578 8.3139 15.6054 8.36771 15.4619C7.99103 15.435 7.61435 15.3094 7.23767 15.0852C6.86099 14.861 6.49327 14.5381 6.1435 14.0897L7.26457 11.8206C7.33632 11.9641 7.43498 12.1166 7.55157 12.2601C7.66816 12.4126 7.80269 12.5471 7.93722 12.6816C8.08072 12.8072 8.22422 12.9148 8.38565 13.0045C8.53812 13.0852 8.69058 13.13 8.82511 13.13C9.09417 13.13 9.33632 13.0404 9.56054 12.87C9.77578 12.6996 9.88341 12.4036 9.88341 11.9731C9.88341 11.7848 9.81166 11.5964 9.67713 11.417C9.5426 11.2287 9.38117 11.0404 9.18386 10.852C8.99552 10.6637 8.78027 10.4574 8.54708 10.2422C8.3139 10.0269 8.09865 9.81166 7.91031 9.56951C7.72197 9.33632 7.56054 9.0852 7.42601 8.83408C7.30045 8.57399 7.2287 8.29596 7.2287 8.00897C7.2287 7.69507 7.30045 7.39013 7.43498 7.10314C7.57848 6.80718 7.76682 6.53812 8.00897 6.287C8.25112 6.03587 8.52915 5.81166 8.85202 5.61435C9.17489 5.41704 9.48879 5.24664 9.82063 5.10314C9.90135 4.71749 9.98206 4.40359 10.0448 4.15247C10.1166 3.90135 10.1883 3.64126 10.2691 3.3722L12.4036 3.12108L11.7848 4.69058C12.0628 4.69955 12.3229 4.74439 12.574 4.82511C12.8161 4.90583 13.0314 5.01345 13.2108 5.16592C13.3901 5.31839 13.5336 5.5157 13.6413 5.74888C13.7489 5.98206 13.7937 6.26906 13.7937 6.6009C13.7937 6.74439 13.7848 6.88789 13.7668 7.02242H13.7937Z" fill="#1AB257"/>
</svg>
