<svg width="14" height="13" viewBox="0 0 14 13" fill="none" xmlns="http://www.w3.org/2000/svg">
<path id="Vector" d="M5.87228 0.712659C6.27586 -0.23756 7.72411 -0.23755 8.1277 0.712669L9.37837 3.65731C9.50157 3.94742 9.74893 4.17706 10.0613 4.29147L13.2325 5.45283C14.2558 5.82759 14.2558 7.17239 13.2325 7.54715L10.0613 8.70848C9.74893 8.82288 9.50157 9.05258 9.37837 9.34268L8.1277 12.2873C7.72411 13.2376 6.27586 13.2376 5.87228 12.2873L4.62158 9.34268C4.49837 9.05258 4.25107 8.82288 3.93864 8.70848L0.767479 7.54715C-0.255833 7.17239 -0.255823 5.82759 0.767489 5.45283L3.93864 4.29147C4.25107 4.17706 4.49837 3.94742 4.62158 3.65731L5.87228 0.712659Z" fill="#E3BEAA"/>
</svg>
