<svg width="20" height="22" viewBox="0 0 20 22" fill="none" xmlns="http://www.w3.org/2000/svg">
<g filter="url(#filter0_d_1114_13096)">
<path fillRule="evenodd" clip-rule="evenodd" d="M10.0003 0.972656C15.4916 0.972656 19.9421 5.2377 19.9421 10.5002C19.9421 15.7626 15.4916 20.0277 10.0003 20.0277C4.50908 20.0277 0.0585938 15.7626 0.0585938 10.5002C0.0585938 5.2377 4.50908 0.972656 10.0003 0.972656Z" fill="url(#paint0_radial_1114_13096)"/>
</g>
<path d="M6.37785 8.32979C8.37784 6.45778 11.6244 6.45778 13.6244 8.32979L13.8652 8.55681C13.9662 8.64985 13.9662 8.80244 13.8652 8.89548L13.0419 9.66587C12.9914 9.71425 12.9099 9.71425 12.8594 9.66587L12.5293 9.35697C11.1312 8.05066 8.87105 8.05066 7.47299 9.35697L7.11959 9.6882C7.06911 9.73658 6.98755 9.73658 6.93707 9.6882L6.11377 8.91781C6.0128 8.82477 6.0128 8.67218 6.11377 8.57914L6.37785 8.32979ZM15.3293 9.92267L16.0633 10.6075C16.1643 10.7005 16.1643 10.8531 16.0633 10.9461L12.7584 14.0388C12.6575 14.1319 12.4943 14.1319 12.3973 14.0388L10.0516 11.8431C10.0283 11.8207 9.98561 11.8207 9.96231 11.8431L7.61668 14.0388C7.51571 14.1319 7.3526 14.1319 7.25551 14.0388L3.93901 10.9461C3.83804 10.8531 3.83804 10.7005 3.93901 10.6075L4.67299 9.92267C4.77396 9.82962 4.93707 9.82962 5.03416 9.92267L7.37979 12.1185C7.40309 12.1408 7.44581 12.1408 7.46911 12.1185L9.81474 9.92267C9.91571 9.82962 10.0788 9.82962 10.1759 9.92267L12.5215 12.1185C12.5448 12.1408 12.5876 12.1408 12.6109 12.1185L14.9565 9.92267C15.0652 9.82962 15.2283 9.82962 15.3293 9.92267Z" fill="white"/>
<defs>
<filter id="filter0_d_1114_13096" x="0.0585938" y="0.972656" width="19.8828" height="20.0547" filterUnits="userSpaceOnUse" colorInterpolationFilters="sRGB">
<feFlood floodOpacity="0" result="BackgroundImageFix"/>
<feColorMatrix in="SourceAlpha" type="matrix" values="0 0 0 0 0 0 0 0 0 0 0 0 0 0 0 0 0 0 127 0" result="hardAlpha"/>
<feOffset dy="1"/>
<feComposite in2="hardAlpha" operator="out"/>
<feColorMatrix type="matrix" values="0 0 0 0 0 0 0 0 0 0 0 0 0 0 0 0 0 0 0.2 0"/>
<feBlend mode="normal" in2="BackgroundImageFix" result="effect1_dropShadow_1114_13096"/>
<feBlend mode="normal" in="SourceGraphic" in2="effect1_dropShadow_1114_13096" result="shape"/>
</filter>
<radialGradient id="paint0_radial_1114_13096" cx="0" cy="0" r="1" gradientUnits="userSpaceOnUse" gradientTransform="translate(0.0586554 10.5005) scale(19.8835 19.055)">
<stop stopColor="#5D9DF6"/>
<stop offset="1" stopColor="#006FFF"/>
</radialGradient>
</defs>
</svg>
