<svg width="21" height="20" viewBox="0 0 21 20" fill="none" xmlns="http://www.w3.org/2000/svg">
<g id="MetaMask-icon-Fox 1">
<path id="Vector" d="M19.672 17.5601L15.5419 16.3504L12.4274 18.1818L10.2543 18.1809L7.13788 16.3504L3.00969 17.5601L1.75391 13.3902L3.00969 8.76223L1.75391 4.84947L3.00969 0L9.4603 3.79094H13.2213L19.672 0L20.9278 4.84947L19.672 8.76223L20.9278 13.3902L19.672 17.5601Z" fill="#FF5C16"/>
<path id="Vector_2" d="M2.66602 0L9.38247 3.79668L9.11541 6.40233L2.66602 0ZM6.96439 13.4028L9.91955 15.5313L6.96439 16.3636V13.4028ZM9.68339 9.88381L9.11541 6.40406L5.47982 8.7704L5.47785 8.76947V8.7712L5.48913 11.2069L6.9634 9.88394L9.68339 9.88381ZM20.0138 0L13.2974 3.79668L13.5636 6.40233L20.0138 0ZM15.7156 13.4028L12.7603 15.5313L15.7156 16.3636V13.4028ZM17.201 8.77107V8.76933L17.2002 8.77027L13.5646 6.40406L12.9966 9.88381H15.7155L17.1907 11.2066L17.201 8.77107Z" fill="#FF5C16"/>
<g id="Vector_3" filter="url(#filter0_d_1114_13086)">
<path d="M7.13788 16.128L3.00969 17.2727L1.75391 13.3283H7.13788V16.128ZM9.74932 10L10.5379 14.7568L9.44499 12.1119L5.72018 11.2517L7.13693 10.0001H9.74932V10ZM15.5437 16.128L19.672 17.2727L20.9278 13.3283H15.5437V16.128ZM12.9324 10L12.1438 14.7568L13.2366 12.1119L16.9616 11.2517L15.5438 10.0001H12.9324V10Z" fill="#E34807"/>
</g>
<path id="Vector_4" d="M1.75391 13.3122L3.00969 8.64748H5.71015L5.72004 11.1013L9.44512 12.0175L10.5379 14.8345L9.97614 15.4549L7.13788 13.3112H1.75391V13.3122ZM20.9278 13.3122L19.672 8.64748H16.9714L16.9616 11.1013L13.2367 12.0175L12.1438 14.8345L12.7055 15.4549L15.5438 13.3112H20.9278V13.3122ZM13.2213 3.63672H9.4603L9.20489 6.26092L10.538 14.8318H12.1438L13.4778 6.26092L13.2213 3.63672Z" fill="#FF8D5D"/>
<path id="Vector_5" d="M3.00969 0L1.75391 4.8027L3.00969 8.67773H5.71015L9.2038 6.33545L3.00969 0ZM8.96885 10.7795H7.74545L7.07935 11.4156L9.44594 11.9872L8.96885 10.7787V10.7795ZM19.672 0L20.9278 4.8027L19.672 8.67773H16.9714L13.4779 6.33545L19.672 0ZM13.7146 10.7795H14.9398L15.6059 11.4164L13.2366 11.989L13.7146 10.7786V10.7795ZM12.4265 16.3636L12.7056 15.3681L12.1438 14.7586H10.5368L9.97519 15.3681L10.2542 16.3636" fill="#661800"/>
<g id="Vector_6" filter="url(#filter1_d_1114_13086)">
<path d="M12.7098 16.3633V18.1815H9.9707V16.3633H12.7098Z" fill="#C0C4CD"/>
</g>
<g id="Vector_7" filter="url(#filter2_d_1114_13086)">
<path d="M7.23242 16.3043L10.2801 18.1804V16.4818L10.0072 15.4531L7.23242 16.3043ZM15.4498 16.3043L12.402 18.1804V16.4818L12.6749 15.4531L15.4498 16.3043Z" fill="#E7EBF6"/>
</g>
</g>
<defs>
<filter id="filter0_d_1114_13086" x="1.75391" y="10" width="19.1738" height="8.27344" filterUnits="userSpaceOnUse" color-interpolation-filters="sRGB">
<feFlood flood-opacity="0" result="BackgroundImageFix"/>
<feColorMatrix in="SourceAlpha" type="matrix" values="0 0 0 0 0 0 0 0 0 0 0 0 0 0 0 0 0 0 127 0" result="hardAlpha"/>
<feOffset dy="1"/>
<feComposite in2="hardAlpha" operator="out"/>
<feColorMatrix type="matrix" values="0 0 0 0 0 0 0 0 0 0 0 0 0 0 0 0 0 0 0.2 0"/>
<feBlend mode="normal" in2="BackgroundImageFix" result="effect1_dropShadow_1114_13086"/>
<feBlend mode="normal" in="SourceGraphic" in2="effect1_dropShadow_1114_13086" result="shape"/>
</filter>
<filter id="filter1_d_1114_13086" x="9.9707" y="16.3633" width="2.73828" height="2.81641" filterUnits="userSpaceOnUse" color-interpolation-filters="sRGB">
<feFlood flood-opacity="0" result="BackgroundImageFix"/>
<feColorMatrix in="SourceAlpha" type="matrix" values="0 0 0 0 0 0 0 0 0 0 0 0 0 0 0 0 0 0 127 0" result="hardAlpha"/>
<feOffset dy="1"/>
<feComposite in2="hardAlpha" operator="out"/>
<feColorMatrix type="matrix" values="0 0 0 0 0 0 0 0 0 0 0 0 0 0 0 0 0 0 0.2 0"/>
<feBlend mode="normal" in2="BackgroundImageFix" result="effect1_dropShadow_1114_13086"/>
<feBlend mode="normal" in="SourceGraphic" in2="effect1_dropShadow_1114_13086" result="shape"/>
</filter>
<filter id="filter2_d_1114_13086" x="7.23242" y="15.4531" width="8.2168" height="3.72656" filterUnits="userSpaceOnUse" color-interpolation-filters="sRGB">
<feFlood flood-opacity="0" result="BackgroundImageFix"/>
<feColorMatrix in="SourceAlpha" type="matrix" values="0 0 0 0 0 0 0 0 0 0 0 0 0 0 0 0 0 0 127 0" result="hardAlpha"/>
<feOffset dy="1"/>
<feComposite in2="hardAlpha" operator="out"/>
<feColorMatrix type="matrix" values="0 0 0 0 0 0 0 0 0 0 0 0 0 0 0 0 0 0 0.2 0"/>
<feBlend mode="normal" in2="BackgroundImageFix" result="effect1_dropShadow_1114_13086"/>
<feBlend mode="normal" in="SourceGraphic" in2="effect1_dropShadow_1114_13086" result="shape"/>
</filter>
</defs>
</svg>

<svg width="20" height="22" viewBox="0 0 20 22" fill="none" xmlns="http://www.w3.org/2000/svg">
<g filter="url(#filter0_d_1114_13096)">
<path fillRule="evenodd" clip-rule="evenodd" d="M10.0003 0.972656C15.4916 0.972656 19.9421 5.2377 19.9421 10.5002C19.9421 15.7626 15.4916 20.0277 10.0003 20.0277C4.50908 20.0277 0.0585938 15.7626 0.0585938 10.5002C0.0585938 5.2377 4.50908 0.972656 10.0003 0.972656Z" fill="url(#paint0_radial_1114_13096)"/>
</g>
<path d="M6.37785 8.32979C8.37784 6.45778 11.6244 6.45778 13.6244 8.32979L13.8652 8.55681C13.9662 8.64985 13.9662 8.80244 13.8652 8.89548L13.0419 9.66587C12.9914 9.71425 12.9099 9.71425 12.8594 9.66587L12.5293 9.35697C11.1312 8.05066 8.87105 8.05066 7.47299 9.35697L7.11959 9.6882C7.06911 9.73658 6.98755 9.73658 6.93707 9.6882L6.11377 8.91781C6.0128 8.82477 6.0128 8.67218 6.11377 8.57914L6.37785 8.32979ZM15.3293 9.92267L16.0633 10.6075C16.1643 10.7005 16.1643 10.8531 16.0633 10.9461L12.7584 14.0388C12.6575 14.1319 12.4943 14.1319 12.3973 14.0388L10.0516 11.8431C10.0283 11.8207 9.98561 11.8207 9.96231 11.8431L7.61668 14.0388C7.51571 14.1319 7.3526 14.1319 7.25551 14.0388L3.93901 10.9461C3.83804 10.8531 3.83804 10.7005 3.93901 10.6075L4.67299 9.92267C4.77396 9.82962 4.93707 9.82962 5.03416 9.92267L7.37979 12.1185C7.40309 12.1408 7.44581 12.1408 7.46911 12.1185L9.81474 9.92267C9.91571 9.82962 10.0788 9.82962 10.1759 9.92267L12.5215 12.1185C12.5448 12.1408 12.5876 12.1408 12.6109 12.1185L14.9565 9.92267C15.0652 9.82962 15.2283 9.82962 15.3293 9.92267Z" fill="white"/>
<defs>
<filter id="filter0_d_1114_13096" x="0.0585938" y="0.972656" width="19.8828" height="20.0547" filterUnits="userSpaceOnUse" color-interpolation-filters="sRGB">
<feFlood flood-opacity="0" result="BackgroundImageFix"/>
<feColorMatrix in="SourceAlpha" type="matrix" values="0 0 0 0 0 0 0 0 0 0 0 0 0 0 0 0 0 0 127 0" result="hardAlpha"/>
<feOffset dy="1"/>
<feComposite in2="hardAlpha" operator="out"/>
<feColorMatrix type="matrix" values="0 0 0 0 0 0 0 0 0 0 0 0 0 0 0 0 0 0 0.2 0"/>
<feBlend mode="normal" in2="BackgroundImageFix" result="effect1_dropShadow_1114_13096"/>
<feBlend mode="normal" in="SourceGraphic" in2="effect1_dropShadow_1114_13096" result="shape"/>
</filter>
<radialGradient id="paint0_radial_1114_13096" cx="0" cy="0" r="1" gradientUnits="userSpaceOnUse" gradientTransform="translate(0.0586554 10.5005) scale(19.8835 19.055)">
<stop stop-color="#5D9DF6"/>
<stop offset="1" stop-color="#006FFF"/>
</radialGradient>
</defs>
</svg>
