<svg width="20" height="20" viewBox="0 0 20 20" fill="none" xmlns="http://www.w3.org/2000/svg">
<g clip-path="url(#clip0_1759_14045)">
<path d="M16.8552 14.1105C16.8552 14.1105 16.5638 7.51516 12.4411 5.59683C12.7436 5.13601 13.0351 4.66784 13.3112 4.19101C13.6747 3.56327 14.0146 2.91206 14.2556 2.22634C14.4638 1.63438 14.4459 0.663045 13.8824 0.24664C13.393 -0.115026 12.6764 -0.00884947 12.1307 0.125333C11.6825 0.235529 11.2543 0.415921 10.8285 0.591019C10.5308 0.713535 10.2288 0.830855 9.9202 0.922848C9.59033 1.02115 9.3267 1.10213 8.90527 0.869744C8.79553 0.809156 8.68628 0.748339 8.5736 0.693306C8.23082 0.525692 7.88909 0.421281 7.50435 0.422751C6.80491 0.425137 6.09233 0.802326 5.7556 1.42412C5.45896 1.97193 5.52596 2.4966 5.76504 3.03539C6.11034 3.81373 6.74429 4.49853 7.29265 5.13761C7.40984 5.27415 7.52837 5.40964 7.64818 5.54415C3.41433 7.39117 3.1173 14.1104 3.1173 14.1104C3.1173 14.1104 2.56783 20 9.98631 20C17.8094 20 16.8552 14.1105 16.8552 14.1105ZM12.1513 14.8969C12.0632 15.1378 11.9354 15.3575 11.7706 15.5495C11.6061 15.7418 11.4056 15.9049 11.1731 16.0337C11.0384 16.1091 10.8935 16.1699 10.7396 16.2168V16.6026C10.7396 16.9389 10.4667 17.212 10.13 17.212H10.0644C9.72758 17.212 9.45468 16.9389 9.45468 16.6026V16.2824C9.34066 16.2604 9.22974 16.2307 9.12314 16.1929C8.8986 16.1142 8.69102 16.0053 8.50589 15.8697C8.32092 15.7336 8.1571 15.5718 8.02014 15.3886C7.92223 15.2576 7.83831 15.1151 7.77076 14.9653C7.65246 14.7022 7.73474 14.3926 7.96733 14.2222L8.06827 14.1492C8.20886 14.0466 8.38644 14.0088 8.55631 14.046C8.72661 14.0827 8.87262 14.1903 8.95817 14.3417C8.99085 14.3998 9.0271 14.4548 9.06719 14.5047C9.14079 14.5981 9.22497 14.6783 9.31745 14.7423C9.40942 14.8062 9.51092 14.8568 9.61932 14.8919C9.72484 14.9259 9.83553 14.9435 9.94843 14.9435C10.0977 14.9435 10.2311 14.9224 10.344 14.8811C10.4493 14.8421 10.5377 14.7897 10.6064 14.7243C10.6724 14.6615 10.724 14.5828 10.7598 14.4899C10.7997 14.3884 10.8193 14.2709 10.8193 14.1395C10.8193 14.0087 10.7973 13.9033 10.7526 13.8265C10.6999 13.7341 10.6279 13.6533 10.5397 13.5865C10.4325 13.505 10.308 13.4322 10.1688 13.3698C10.0028 13.2951 9.83232 13.2212 9.66187 13.1492C9.47824 13.0718 9.29507 12.9869 9.11863 12.8965C8.91834 12.7939 8.73582 12.667 8.5767 12.5191C8.40664 12.3607 8.2684 12.1689 8.16566 11.9489C8.06014 11.7219 8.00674 11.4528 8.00674 11.1484C8.00674 10.9018 8.05089 10.6649 8.13844 10.4448C8.2255 10.2258 8.3503 10.0271 8.50902 9.85506C8.66736 9.68365 8.85955 9.54025 9.08111 9.42849C9.1987 9.36957 9.32357 9.32104 9.45471 9.28329V8.95502C9.45471 8.61865 9.72762 8.34561 10.0644 8.34561H10.13C10.4668 8.34561 10.7396 8.61862 10.7396 8.95502V9.26071C10.9672 9.31535 11.1774 9.39996 11.3678 9.51483C11.5975 9.6527 11.7958 9.82692 11.9587 10.0329C12.1388 10.262 12.1326 10.5863 11.9429 10.8073L11.8452 10.9216C11.7327 11.0523 11.5704 11.1298 11.3975 11.1339C11.2244 11.138 11.0591 11.0694 10.9404 10.944C10.9148 10.9173 10.8884 10.8918 10.8613 10.8675C10.7915 10.8045 10.7163 10.7497 10.6379 10.7047C10.5639 10.662 10.4842 10.6277 10.4024 10.6038C10.3261 10.5816 10.2483 10.5703 10.1704 10.5703C10.0431 10.5703 9.93017 10.5873 9.83575 10.6208C9.74765 10.6517 9.67415 10.6931 9.61768 10.7433C9.56337 10.7919 9.5234 10.8457 9.495 10.9079C9.46755 10.9685 9.45399 11.0332 9.45399 11.1054C9.45399 11.2179 9.47419 11.3073 9.5136 11.3706C9.56504 11.4537 9.63572 11.5269 9.72412 11.5888C9.83392 11.6662 9.96206 11.7365 10.1053 11.7979C10.274 11.8706 10.4463 11.9448 10.6221 12.02C10.8085 12.1002 10.9939 12.1896 11.1732 12.2865C11.3755 12.395 11.5597 12.5313 11.7202 12.6905C11.8902 12.8593 12.0275 13.0627 12.1286 13.2964C12.2309 13.5331 12.283 13.8167 12.283 14.1385C12.283 14.4019 12.2384 14.6575 12.1513 14.8969Z" fill="#B5D48E"/>
</g>
<defs>
<clipPath id="clip0_1759_14045">
<rect width="20" height="20" fill="white"/>
</clipPath>
</defs>
</svg>
