<svg width="10" height="15" viewBox="0 0 10 15" fill="none" xmlns="http://www.w3.org/2000/svg">
<path d="M9 7.35937V10.1283C9 11.1931 8.55022 12.1615 7.8251 12.8631L7.80768 12.8784C7.08433 13.5708 6.09111 14 4.99979 14C3.90067 14 2.90071 13.5642 2.17569 12.8626C1.44978 12.1599 1 11.1919 1 10.1278V6.99257C1 6.35986 1.53574 5.84123 2.18975 5.84123C2.2595 5.84123 2.32757 5.84698 2.39445 5.85809V3.66299C2.39445 3.38695 2.51149 3.13573 2.69907 2.95365C2.88676 2.77072 3.14667 2.65752 3.43271 2.65752C3.60159 2.65752 3.76207 2.69745 3.90376 2.76833V2.00508C3.90376 1.72868 4.02081 1.47697 4.20889 1.29489C4.39658 1.1132 4.65649 1 4.94252 1C5.21916 1 5.47145 1.10631 5.65785 1.27841L5.67654 1.29489C5.86423 1.47658 5.98117 1.72818 5.98117 2.00508V2.08955C6.12285 2.01954 6.28283 1.9796 6.45222 1.9796C6.73686 1.9796 6.99688 2.0929 7.18497 2.27535C7.37345 2.45656 7.49048 2.70825 7.49048 2.98468V3.95393C7.63216 3.88392 7.79214 3.84398 7.96154 3.84398C8.23766 3.84398 8.49006 3.95029 8.67637 4.12239L8.69507 4.13887C8.88276 4.32056 8.9997 4.57217 8.9997 4.84906L9 7.35937ZM3.3794 8.88719C3.56066 8.89993 3.73944 8.93748 3.90922 8.99714C4.17517 9.0911 4.41984 9.23975 4.62325 9.43667C4.82627 9.6332 4.98022 9.87043 5.07728 10.1279C5.17385 10.3845 5.21342 10.6617 5.18879 10.9389C5.17563 11.0901 5.0382 11.2017 4.88198 11.189C4.72586 11.1762 4.61049 11.0432 4.62366 10.892C4.64157 10.6931 4.61347 10.4958 4.5454 10.3144C4.47733 10.1336 4.36801 9.96591 4.22196 9.82463C4.07603 9.68336 3.90277 9.57743 3.71598 9.51153C3.53086 9.44601 3.32962 9.41929 3.12709 9.43491C2.96157 9.45052 2.81178 9.33195 2.81178 9.16223V6.9926C2.81178 6.65853 2.52922 6.39037 2.18926 6.39037C1.84675 6.39037 1.56675 6.66142 1.56675 6.9926V10.1278C1.56675 11.0419 1.9531 11.8727 2.57484 12.475C3.19695 13.0768 4.05565 13.4508 4.99944 13.4508C5.93638 13.4508 6.78913 13.0826 7.40998 12.4886L7.42363 12.4746C8.04575 11.8723 8.4321 11.0411 8.4321 10.1279V4.84917C8.4321 4.72399 8.37887 4.60983 8.29339 4.52746L8.28191 4.51549C8.19762 4.43973 8.08443 4.39318 7.96065 4.39318C7.83134 4.39318 7.7134 4.44471 7.62832 4.52746C7.54402 4.60906 7.49129 4.72064 7.4896 4.84344V6.85448C7.4896 7.00609 7.36277 7.12926 7.20575 7.12926C7.04913 7.12926 6.9219 7.00648 6.9219 6.85448V2.9849C6.9219 2.86011 6.86867 2.74604 6.78318 2.66319C6.69849 2.57996 6.58066 2.52891 6.45085 2.52891C6.32154 2.52891 6.20361 2.58044 6.11852 2.66319C6.03422 2.74479 5.98149 2.85637 5.97981 2.97917V6.85438C5.97981 7.006 5.85297 7.12916 5.69595 7.12916C5.53933 7.12916 5.4121 7.00638 5.4121 6.85438V2.00528C5.4121 1.88009 5.35887 1.76593 5.27339 1.68356L5.26191 1.67159C5.17761 1.59583 5.06403 1.54928 4.94064 1.54928C4.81133 1.54928 4.6934 1.60081 4.60831 1.68356C4.52283 1.76632 4.4696 1.88048 4.4696 2.00528V6.85487C4.4696 7.00649 4.34276 7.12965 4.18575 7.12965C4.02913 7.12965 3.90189 7.00687 3.90189 6.85487V3.65761C3.90021 3.53405 3.84738 3.42199 3.76447 3.34163C3.67849 3.2584 3.56065 3.20735 3.43084 3.20735C3.30153 3.20735 3.18359 3.25888 3.09851 3.34163C3.01303 3.42362 2.9598 3.53816 2.9598 3.66374V6.11832C2.98364 6.13805 3.0062 6.15826 3.02826 6.17972C3.24355 6.38937 3.37761 6.67728 3.37761 6.99286V8.88734L3.3794 8.88719Z" fill="white"/>
<path d="M3.3794 8.88719C3.56066 8.89993 3.73944 8.93748 3.90922 8.99714C4.17517 9.0911 4.41984 9.23975 4.62325 9.43667C4.82627 9.6332 4.98022 9.87043 5.07728 10.1279C5.17385 10.3845 5.21342 10.6617 5.18879 10.9389C5.17563 11.0901 5.0382 11.2017 4.88198 11.189C4.72586 11.1762 4.61049 11.0432 4.62366 10.892C4.64157 10.6931 4.61347 10.4958 4.5454 10.3144C4.47733 10.1336 4.36801 9.96591 4.22196 9.82463C4.07603 9.68336 3.90277 9.57743 3.71598 9.51153C3.53086 9.44601 3.32962 9.41929 3.12709 9.43491C2.96157 9.45052 2.81178 9.33195 2.81178 9.16223V6.9926C2.81178 6.65853 2.52922 6.39037 2.18926 6.39037C1.84675 6.39037 1.56675 6.66142 1.56675 6.9926V10.1278C1.56675 11.0419 1.9531 11.8727 2.57484 12.475C3.19695 13.0768 4.05565 13.4508 4.99944 13.4508C5.93638 13.4508 6.78913 13.0826 7.40998 12.4886L7.42363 12.4746C8.04575 11.8723 8.4321 11.0411 8.4321 10.1279V4.84917C8.4321 4.72399 8.37887 4.60983 8.29339 4.52746L8.28191 4.51549C8.19762 4.43973 8.08443 4.39318 7.96065 4.39318C7.83134 4.39318 7.7134 4.44471 7.62832 4.52746C7.54402 4.60906 7.49129 4.72064 7.4896 4.84344V6.85448C7.4896 7.00609 7.36277 7.12926 7.20575 7.12926C7.04913 7.12926 6.9219 7.00648 6.9219 6.85448V2.9849C6.9219 2.86011 6.86867 2.74604 6.78318 2.66319C6.69849 2.57996 6.58066 2.52891 6.45085 2.52891C6.32154 2.52891 6.20361 2.58044 6.11852 2.66319C6.03422 2.74479 5.98149 2.85637 5.97981 2.97917V6.85438C5.97981 7.006 5.85297 7.12916 5.69595 7.12916C5.53933 7.12916 5.4121 7.00638 5.4121 6.85438V2.00528C5.4121 1.88009 5.35887 1.76593 5.27339 1.68356L5.26191 1.67159C5.17761 1.59583 5.06403 1.54928 4.94064 1.54928C4.81133 1.54928 4.6934 1.60081 4.60831 1.68356C4.52283 1.76632 4.4696 1.88048 4.4696 2.00528V6.85487C4.4696 7.00649 4.34276 7.12965 4.18575 7.12965C4.02913 7.12965 3.90189 7.00687 3.90189 6.85487V3.65761C3.90021 3.53405 3.84738 3.42199 3.76447 3.34163C3.67849 3.2584 3.56065 3.20735 3.43084 3.20735C3.30153 3.20735 3.18359 3.25888 3.09851 3.34163C3.01303 3.42362 2.9598 3.53816 2.9598 3.66374V6.11832C2.98364 6.13805 3.0062 6.15826 3.02826 6.17972C3.24355 6.38937 3.37761 6.67728 3.37761 6.99286V8.88734L3.3794 8.88719Z" fill="#5F3F57"/>
<path d="M4.94238 0.900391C5.24397 0.900391 5.51957 1.01561 5.72363 1.20312L5.74219 1.21973L5.74609 1.22266L5.81934 1.30176C5.96909 1.47741 6.06299 1.69939 6.07715 1.94238C6.19475 1.90228 6.32077 1.87989 6.45215 1.87988C6.76357 1.87988 7.04874 2.00321 7.25488 2.20312H7.25391C7.46069 2.40193 7.59073 2.67919 7.59082 2.98438V3.80566C7.70724 3.76647 7.83209 3.74414 7.96191 3.74414C8.26281 3.74424 8.5383 3.8595 8.74219 4.04688L8.76074 4.06348L8.76465 4.06738L8.83789 4.14551C9.00044 4.33611 9.0995 4.58129 9.09961 4.84863V10.1279C9.09961 11.2216 8.63771 12.2154 7.89453 12.9346L7.89062 12.9385L7.87305 12.9541C7.13203 13.6617 6.11593 14.0996 5 14.0996C3.94462 14.0996 2.97795 13.7078 2.24902 13.0664L2.10645 12.9346C1.36246 12.2144 0.900427 11.2209 0.900391 10.1279V6.99219C0.900605 6.30146 1.48359 5.74137 2.18945 5.74121C2.22488 5.74121 2.26022 5.74241 2.29492 5.74512V3.66309C2.29492 3.3582 2.42349 3.08134 2.62891 2.88184L2.70996 2.81055C2.90667 2.65237 3.15894 2.55764 3.43262 2.55762C3.56208 2.55762 3.68703 2.57957 3.80371 2.61914V2.00488C3.80377 1.69965 3.9335 1.42222 4.13965 1.22266L4.21973 1.15234C4.41639 0.995004 4.66861 0.900423 4.94238 0.900391Z" stroke="white" stroke-width="0.2"/>
</svg>
