<svg width="17" height="17" viewBox="0 0 17 17" fill="none" xmlns="http://www.w3.org/2000/svg">
<g id="web_svgrepo.com">
<g id="style=fill">
<g id="web">
<g id="Vector">
<path id="Vector_2" d="M10.8524 7.35547C10.8931 7.75405 10.9164 8.13981 10.9164 8.50084C10.9164 9.17666 10.8347 9.93982 10.7098 10.7114C9.9382 10.8364 9.17504 10.918 8.49922 10.918C7.82644 10.918 7.06352 10.8366 6.28859 10.7112C6.16371 9.93961 6.08203 9.17659 6.08203 8.50084C6.08203 8.13995 6.10533 7.75412 6.14606 7.35547C6.95936 7.48566 7.7707 7.57116 8.49922 7.57116C9.22781 7.57116 10.0391 7.48566 10.8524 7.35547Z" fill="#745061"/>
<path id="Vector_3" d="M11.7125 7.19384C11.7628 7.66028 11.7921 8.11439 11.7921 8.5401C11.7921 9.16124 11.7299 9.84266 11.6309 10.5343C13.0352 10.2412 14.3332 9.86688 15.0286 9.65374C15.2533 9.58489 15.3416 9.55748 15.46 9.51009C15.5193 9.48643 15.5735 9.46235 15.6443 9.42856C15.6789 9.13723 15.6968 8.84072 15.6968 8.5401C15.6968 7.74535 15.5721 6.97974 15.3413 6.26172L15.2812 6.28064C14.5541 6.50184 13.1929 6.89287 11.7125 7.19384Z" fill="#745061"/>
<path id="Vector_4" d="M15.1586 5.18586C14.4277 5.40738 13.1592 5.76734 11.7999 6.04759C11.4867 4.14446 10.9379 2.2463 10.6738 1.38672C12.6373 1.98617 14.2559 3.37621 15.1586 5.18586Z" fill="#745061"/>
<path id="Vector_5" d="M10.705 6.24912C9.93549 6.37345 9.17474 6.45469 8.5009 6.45469C7.82707 6.45469 7.06637 6.37345 6.29688 6.24913C6.59174 4.44837 7.1181 2.60883 7.38726 1.73069C7.45611 1.50596 7.48352 1.41769 7.53091 1.29921C7.55457 1.24002 7.57865 1.18574 7.61244 1.11502C7.90378 1.08034 8.20029 1.0625 8.5009 1.0625C8.81498 1.0625 9.12445 1.08196 9.42833 1.11975C9.43477 1.14441 9.44072 1.16648 9.4466 1.18735C9.46403 1.24903 9.4913 1.3357 9.53705 1.48115L9.54187 1.49643C9.7713 2.22575 10.3793 4.25992 10.705 6.24912Z" fill="#745061"/>
<path id="Vector_6" d="M5.19854 6.04757C5.51025 4.15283 6.0555 2.2649 6.31904 1.40502L6.32464 1.38672C4.3611 1.98617 2.74251 3.3762 1.83984 5.18586C2.57072 5.40737 3.83919 5.76733 5.19854 6.04757Z" fill="#745061"/>
<path id="Vector_7" d="M1.41797 6.22266C1.18715 6.94069 1.0625 7.7063 1.0625 8.50105C1.0625 8.81193 1.08158 9.11836 1.11862 9.41926L1.23584 9.45836L1.23677 9.45864L1.23792 9.45907L1.23873 9.45928C1.27645 9.47182 2.38216 9.83696 3.8383 10.1993C4.24919 10.3015 4.68426 10.4025 5.12838 10.4951C5.02934 9.80353 4.96719 9.12218 4.96719 8.50105C4.96719 8.0752 4.9964 7.62108 5.04668 7.15479C3.56595 6.85372 2.20446 6.46255 1.47756 6.24138L1.4725 6.23984L1.41797 6.22266Z" fill="#745061"/>
<path id="Vector_8" d="M8.49997 12.0323C9.12111 12.0323 9.80253 11.9701 10.4941 11.8711C10.2011 13.2754 9.82675 14.5735 9.61361 15.2688C9.54476 15.4935 9.51735 15.5818 9.46996 15.7003C9.44631 15.7595 9.42222 15.8137 9.38844 15.8845C9.0971 15.9191 8.80059 15.937 8.49997 15.937C8.19936 15.937 7.90285 15.9191 7.61151 15.8845C7.57772 15.8137 7.55364 15.7595 7.52998 15.7003C7.48259 15.5818 7.45518 15.4935 7.38633 15.2688C7.17319 14.5735 6.79888 13.2756 6.50586 11.8714C7.19515 11.97 7.87671 12.0323 8.49997 12.0323Z" fill="#745061"/>
<path id="Vector_9" d="M3.56822 11.2819C2.64741 11.0528 1.86316 10.8226 1.38477 10.6758C2.10486 13.0345 3.96583 14.8955 6.32458 15.6156L6.31898 15.5973C6.08886 14.8464 5.64397 13.3118 5.32731 11.6733C4.71147 11.5542 4.11273 11.4173 3.56822 11.2819Z" fill="#745061"/>
<path id="Vector_10" d="M15.5953 10.6814C14.8445 10.9115 13.3097 11.3564 11.6711 11.673C11.3545 13.3117 10.9096 14.8464 10.6794 15.5973L10.6738 15.6156C13.0326 14.8955 14.8935 13.0345 15.6136 10.6758L15.5953 10.6814Z" fill="#745061"/>
<path id="Vector_11" d="M1.14062 9.4375C1.16637 9.44083 1.18736 9.44437 1.19432 9.44593C1.20042 9.44742 1.20998 9.44997 1.21344 9.45089L1.2211 9.45308L1.22522 9.45436L1.22956 9.4557L1.23319 9.45684C1.23115 9.4562 1.18983 9.44586 1.14062 9.4375Z" fill="#745061"/>
</g>
</g>
</g>
</g>
</svg>
