<svg width="17" height="17" viewBox="0 0 17 17" fill="none" xmlns="http://www.w3.org/2000/svg">
<path d="M10.8524 7.35474C10.8931 7.75332 10.9164 8.13907 10.9164 8.50011C10.9164 9.17593 10.8347 9.93909 10.7098 10.7107C9.9382 10.8356 9.17504 10.9173 8.49922 10.9173C7.82644 10.9173 7.06352 10.8358 6.28859 10.7105C6.16371 9.93888 6.08203 9.17586 6.08203 8.50011C6.08203 8.13922 6.10533 7.75339 6.14606 7.35474C6.95936 7.48493 7.7707 7.57042 8.49922 7.57042C9.22781 7.57042 10.0391 7.48493 10.8524 7.35474Z" fill="#E3BEAA"/>
<path d="M11.7125 7.19531C11.7628 7.66175 11.7921 8.11586 11.7921 8.54157C11.7921 9.1627 11.7299 9.84412 11.6309 10.5357C13.0352 10.2427 14.3332 9.86835 15.0286 9.65521C15.2533 9.58636 15.3416 9.55895 15.46 9.51156C15.5193 9.4879 15.5735 9.46382 15.6443 9.43003C15.6789 9.13869 15.6968 8.84218 15.6968 8.54157C15.6968 7.74682 15.5721 6.98121 15.3413 6.26318L15.2812 6.2821C14.5541 6.5033 13.1929 6.89434 11.7125 7.19531Z" fill="#E3BEAA"/>
<path d="M15.1586 5.18464C14.4277 5.40616 13.1592 5.76612 11.7999 6.04637C11.4867 4.14324 10.9379 2.24508 10.6738 1.3855C12.6373 1.98495 14.2559 3.37499 15.1586 5.18464Z" fill="#E3BEAA"/>
<path d="M10.705 6.24912C9.93549 6.37345 9.17474 6.45469 8.5009 6.45469C7.82707 6.45469 7.06637 6.37345 6.29688 6.24913C6.59174 4.44837 7.1181 2.60883 7.38726 1.73069C7.45611 1.50596 7.48352 1.41769 7.53091 1.29921C7.55457 1.24002 7.57865 1.18574 7.61244 1.11502C7.90378 1.08034 8.20029 1.0625 8.5009 1.0625C8.81498 1.0625 9.12445 1.08196 9.42833 1.11975C9.43477 1.14441 9.44072 1.16648 9.4466 1.18735C9.46403 1.24903 9.4913 1.3357 9.53705 1.48115L9.54187 1.49643C9.7713 2.22575 10.3793 4.25992 10.705 6.24912Z" fill="#E3BEAA"/>
<path d="M5.19854 6.04635C5.51025 4.15161 6.0555 2.26368 6.31904 1.4038L6.32464 1.3855C4.3611 1.98495 2.74251 3.37498 1.83984 5.18464C2.57072 5.40615 3.83919 5.76611 5.19854 6.04635Z" fill="#E3BEAA"/>
<path d="M1.41797 6.22168C1.18715 6.93971 1.0625 7.70532 1.0625 8.50007C1.0625 8.81096 1.08158 9.11738 1.11862 9.41828L1.23584 9.45738L1.23677 9.45766L1.23792 9.45809L1.23873 9.4583C1.27645 9.47084 2.38216 9.83599 3.8383 10.1983C4.24919 10.3005 4.68426 10.4015 5.12838 10.4941C5.02934 9.80255 4.96719 9.12121 4.96719 8.50007C4.96719 8.07422 4.9964 7.62011 5.04668 7.15381C3.56595 6.85274 2.20446 6.46157 1.47756 6.24041L1.4725 6.23886L1.41797 6.22168Z" fill="#E3BEAA"/>
<path d="M8.49997 12.0328C9.12111 12.0328 9.80253 11.9706 10.4941 11.8716C10.2011 13.2759 9.82675 14.5739 9.61361 15.2692C9.54476 15.494 9.51735 15.5823 9.46996 15.7008C9.44631 15.76 9.42222 15.8142 9.38844 15.885C9.0971 15.9196 8.80059 15.9375 8.49997 15.9375C8.19936 15.9375 7.90285 15.9196 7.61151 15.885C7.57772 15.8142 7.55364 15.76 7.52998 15.7008C7.48259 15.5823 7.45518 15.494 7.38633 15.2693C7.17319 14.574 6.79888 13.2761 6.50586 11.8719C7.19515 11.9705 7.87671 12.0328 8.49997 12.0328Z" fill="#E3BEAA"/>
<path d="M3.56822 11.2809C2.64741 11.0518 1.86316 10.8216 1.38477 10.6748C2.10486 13.0336 3.96583 14.8945 6.32458 15.6146L6.31898 15.5963C6.08886 14.8455 5.64397 13.3109 5.32731 11.6723C4.71147 11.5532 4.11273 11.4164 3.56822 11.2809Z" fill="#E3BEAA"/>
<path d="M15.5953 10.6804C14.8445 10.9105 13.3097 11.3554 11.6711 11.6721C11.3545 13.3107 10.9096 14.8454 10.6794 15.5963L10.6738 15.6146C13.0326 14.8945 14.8935 13.0336 15.6136 10.6748L15.5953 10.6804Z" fill="#E3BEAA"/>
<path d="M1.14062 9.43701C1.16637 9.44034 1.18736 9.44388 1.19432 9.44544C1.20042 9.44693 1.20998 9.44948 1.21344 9.4504L1.2211 9.4526L1.22522 9.45387L1.22956 9.45522L1.23319 9.45635C1.23115 9.45571 1.18983 9.44537 1.14062 9.43701Z" fill="#745061"/>
</svg>
