<svg width="16" height="17" viewBox="0 0 16 17" fill="none" xmlns="http://www.w3.org/2000/svg">
<path d="M12.3229 11.6783C11.8987 11.7797 11.4559 11.8333 11.0007 11.8333C7.87105 11.8333 5.33399 9.29627 5.33399 6.16668C5.33399 5.84436 5.36089 5.52833 5.41259 5.2207C5.38847 5.24391 5.36353 5.26528 5.33728 5.28521C5.15021 5.42722 4.91722 5.47994 4.45125 5.58538L4.02701 5.68136C2.38723 6.05238 1.56733 6.23788 1.37227 6.86516C1.1772 7.49247 1.73615 8.14607 2.85405 9.45327L3.14327 9.79147C3.46093 10.1629 3.61977 10.3487 3.69123 10.5785C3.76269 10.8083 3.73867 11.0561 3.69064 11.5517L3.64692 12.0029C3.47791 13.7471 3.3934 14.6191 3.90409 15.0068C4.41477 15.3945 5.18243 15.0411 6.71779 14.3341L7.11499 14.1512C7.55125 13.9503 7.76939 13.8499 8.00065 13.8499C8.23192 13.8499 8.45005 13.9503 8.88632 14.1512L9.28352 14.3341C10.8189 15.0411 11.5865 15.3945 12.0973 15.0068C12.6079 14.6191 12.5234 13.7471 12.3544 12.0029L12.3229 11.6783Z" fill="#745061"/>
<path d="M6.10276 4.10551L5.88429 4.49741C5.64433 4.92788 5.52435 5.14311 5.33728 5.28513C5.36353 5.26519 5.38846 5.24383 5.41259 5.22062C5.36089 5.52825 5.33398 5.84427 5.33398 6.16659C5.33398 9.29619 7.87101 11.8333 11.0007 11.8333C11.4559 11.8333 11.8987 11.7796 12.3229 11.6782L12.3107 11.5517C12.2626 11.056 12.2386 10.8082 12.3101 10.5784C12.3815 10.3486 12.5403 10.1629 12.858 9.79139L13.1473 9.45319C14.2651 8.14599 14.8241 7.49232 14.629 6.86507C14.4339 6.2378 13.6141 6.05229 11.9743 5.68127L11.5501 5.58529C11.0841 5.47985 10.8511 5.42714 10.664 5.28513C10.4769 5.14311 10.3569 4.92788 10.117 4.49741L9.89854 4.1055C9.05408 2.59067 8.63188 1.83325 8.00068 1.83325C7.36941 1.83325 6.94721 2.59067 6.10276 4.10551Z" fill="#745061"/>
</svg>
