<svg width="16" height="17" viewBox="0 0 16 17" fill="none" xmlns="http://www.w3.org/2000/svg">
<g id="star_svgrepo.com">
<path id="Vector" d="M12.3229 11.6763C11.8987 11.7777 11.4559 11.8314 11.0007 11.8314C7.87105 11.8314 5.33399 9.29432 5.33399 6.16472C5.33399 5.8424 5.36089 5.52638 5.41259 5.21875C5.38847 5.24196 5.36353 5.26333 5.33728 5.28326C5.15021 5.42527 4.91722 5.47799 4.45125 5.58342L4.02701 5.67941C2.38723 6.05042 1.56733 6.23593 1.37227 6.86321C1.1772 7.49052 1.73615 8.14412 2.85405 9.45132L3.14327 9.78952C3.46093 10.161 3.61977 10.3467 3.69123 10.5765C3.76269 10.8063 3.73867 11.0541 3.69064 11.5498L3.64692 12.001C3.47791 13.7451 3.3934 14.6172 3.90409 15.0048C4.41477 15.3925 5.18243 15.0391 6.71779 14.3322L7.11499 14.1493C7.55125 13.9484 7.76939 13.848 8.00065 13.848C8.23192 13.848 8.45005 13.9484 8.88632 14.1493L9.28352 14.3322C10.8189 15.0391 11.5865 15.3925 12.0973 15.0048C12.6079 14.6172 12.5234 13.7451 12.3544 12.001L12.3229 11.6763Z" fill="#E3BEAA"/>
<path id="Vector_2" d="M6.10276 4.10428L5.88429 4.49618C5.64433 4.92666 5.52435 5.14189 5.33728 5.2839C5.36353 5.26397 5.38846 5.2426 5.41259 5.2194C5.36089 5.52702 5.33398 5.84305 5.33398 6.16537C5.33398 9.29496 7.87101 11.832 11.0007 11.832C11.4559 11.832 11.8987 11.7784 12.3229 11.677L12.3107 11.5504C12.2626 11.0548 12.2386 10.807 12.3101 10.5772C12.3815 10.3474 12.5403 10.1616 12.858 9.79016L13.1473 9.45196C14.2651 8.14476 14.8241 7.4911 14.629 6.86385C14.4339 6.23658 13.6141 6.05107 11.9743 5.68005L11.5501 5.58406C11.0841 5.47863 10.8511 5.42592 10.664 5.2839C10.4769 5.14189 10.3569 4.92666 10.117 4.49619L9.89854 4.10428C9.05408 2.58944 8.63188 1.83203 8.00068 1.83203C7.36941 1.83203 6.94721 2.58945 6.10276 4.10428Z" fill="#E3BEAA"/>
</g>
</svg>
