<svg width="15" height="15" viewBox="0 0 15 15" fill="none" xmlns="http://www.w3.org/2000/svg">
<path d="M5.6218 11.8739C9.07479 11.8739 11.874 9.07476 11.874 5.62171C11.874 5.4119 11.8636 5.2045 11.8435 5C13.6999 5.79693 15 7.64154 15 9.78981C15 12.6674 12.6673 15 9.78983 15C7.64158 15 5.79697 13.6998 5 11.8435C5.20452 11.8636 5.41193 11.8739 5.6218 11.8739Z" fill="#917377"/>
<path d="M5.625 11.25C8.7316 11.25 11.25 8.7316 11.25 5.625C11.25 2.5184 8.7316 0 5.625 0C2.5184 0 0 2.5184 0 5.625C0 8.7316 2.5184 11.25 5.625 11.25Z" fill="#917377"/>
</svg>
