<svg width="20" height="20" viewBox="0 0 20 20" fill="none" xmlns="http://www.w3.org/2000/svg">
<path d="M10 20C15.5228 20 20 15.5228 20 10C20 4.47715 15.5228 0 10 0C4.47715 0 0 4.47715 0 10C0 15.5228 4.47715 20 10 20Z" fill="#745061"/>
<path fill-rule="evenodd" clip-rule="evenodd" d="M11.2201 10.9133V10.9121C11.1518 10.917 10.7995 10.9381 10.0137 10.9381C9.38621 10.9381 8.9445 10.9195 8.78919 10.9121V10.9139C6.37378 10.8082 4.57093 10.3896 4.57093 9.88882C4.57093 9.38862 6.37378 8.97004 8.78919 8.86246V10.4972C8.94699 10.5083 9.39925 10.5349 10.0242 10.5349C10.7741 10.5349 11.1499 10.504 11.2201 10.4978V8.8637C13.6306 8.97066 15.4291 9.38924 15.4291 9.88882C15.4291 10.3896 13.6306 10.807 11.2201 10.9133ZM11.2201 8.69367V7.23079H14.5836V5H5.42576V7.23079H8.78919V8.69305C6.05571 8.81794 4 9.35709 4 10.0026C4 10.6481 6.05571 11.1866 8.78919 11.3121V16H11.2201V11.3109C13.9493 11.186 16 10.6475 16 10.0026C16 9.35771 13.9493 8.81918 11.2201 8.69367Z" fill="#EED1B8"/>
</svg>
